<?xml version="1.0" encoding="UTF-8" standalone="no"?>
<!-- Created with Inkscape (http://www.inkscape.org/) -->

<svg
   xmlns:dc="http://purl.org/dc/elements/1.1/"
   xmlns:cc="http://creativecommons.org/ns#"
   xmlns:rdf="http://www.w3.org/1999/02/22-rdf-syntax-ns#"
   xmlns:svg="http://www.w3.org/2000/svg"
   xmlns="http://www.w3.org/2000/svg"
   xmlns:sodipodi="http://sodipodi.sourceforge.net/DTD/sodipodi-0.dtd"
   xmlns:inkscape="http://www.inkscape.org/namespaces/inkscape"
   version="1.1"
   id="svg2"
   xml:space="preserve"
   width="1322.8347"
   height="944.88135"
   viewBox="0 0 1322.8347 944.88135"
   sodipodi:docname="Logo North way.svg"
   inkscape:version="0.92.5 (2060ec1f9f, 2020-04-08)"><metadata
     id="metadata8"><rdf:RDF><cc:Work
         rdf:about=""><dc:format>image/svg+xml</dc:format><dc:type
           rdf:resource="http://purl.org/dc/dcmitype/StillImage" /><dc:title></dc:title></cc:Work></rdf:RDF></metadata><defs
     id="defs6"><clipPath
       clipPathUnits="userSpaceOnUse"
       id="clipPath18"><path
         d="M 0,708.661 H 992.126 V 0 H 0 Z"
         id="path16"
         inkscape:connector-curvature="0" /></clipPath><clipPath
       clipPathUnits="userSpaceOnUse"
       id="clipPath90"><path
         d="m 98,380.215 c -5.425,-6.035 -4.024,-12.395 4.178,-13.852 v 0 c 8.992,-1.597 21.284,3.397 26.192,10.642 v 0 c 4.476,6.606 0.487,11.915 -7.918,12.331 v 0 c -0.351,0.018 -0.707,0.026 -1.066,0.026 v 0 c -7.568,0 -16.6,-3.822 -21.386,-9.147"
         id="path88"
         inkscape:connector-curvature="0" /></clipPath><linearGradient
       x1="0"
       y1="0"
       x2="1"
       y2="0"
       gradientUnits="userSpaceOnUse"
       gradientTransform="matrix(52.770535,-16.049595,-10.968671,-56.234894,80.144623,387.55243)"
       spreadMethod="pad"
       id="linearGradient102"><stop
         style="stop-opacity:1;stop-color:#434f5f"
         offset="0"
         id="stop96" /><stop
         style="stop-opacity:1;stop-color:#434f5f"
         offset="0.5260686"
         id="stop98" /><stop
         style="stop-opacity:1;stop-color:#222629"
         offset="1"
         id="stop100" /></linearGradient><clipPath
       clipPathUnits="userSpaceOnUse"
       id="clipPath112"><path
         d="M 79.745,363.344 62.626,341.423 c -1.89,-2.422 -1.953,-4.901 -0.055,-5.727 v 0 l 24.341,-10.573 c 2.671,-1.161 6.607,0.242 8.994,3.214 v 0 l 21.494,26.755 c 2.071,2.577 1.124,5.291 -1.893,5.872 v 0 l -28.678,5.529 c -0.251,0.049 -0.517,0.072 -0.794,0.072 v 0 c -2.107,0 -4.831,-1.351 -6.29,-3.221"
         id="path110"
         inkscape:connector-curvature="0" /></clipPath><linearGradient
       x1="0"
       y1="0"
       x2="1"
       y2="0"
       gradientUnits="userSpaceOnUse"
       gradientTransform="matrix(83.250206,-25.319658,-17.304052,-88.71553,38.549538,362.10062)"
       spreadMethod="pad"
       id="linearGradient124"><stop
         style="stop-opacity:1;stop-color:#434f5f"
         offset="0"
         id="stop118" /><stop
         style="stop-opacity:1;stop-color:#434f5f"
         offset="0.5260686"
         id="stop120" /><stop
         style="stop-opacity:1;stop-color:#222629"
         offset="1"
         id="stop122" /></linearGradient><clipPath
       clipPathUnits="userSpaceOnUse"
       id="clipPath134"><path
         d="M 0,708.661 H 992.126 V 0 H 0 Z"
         id="path132"
         inkscape:connector-curvature="0" /></clipPath><clipPath
       clipPathUnits="userSpaceOnUse"
       id="clipPath142"><path
         d="M 94.7648,389.363 H 121.228 V 366.234 H 94.7648 Z"
         id="path140"
         inkscape:connector-curvature="0" /></clipPath><clipPath
       clipPathUnits="userSpaceOnUse"
       id="clipPath158"><path
         d="M 61.177,366.565 H 88.2825 V 335.044 H 61.177 Z"
         id="path156"
         inkscape:connector-curvature="0" /></clipPath><clipPath
       clipPathUnits="userSpaceOnUse"
       id="clipPath174"><path
         d="m 141.613,416.619 -32.215,-26.89 c 4.263,1.477 8.824,2.292 13.065,2.136 v 0 c 4.382,-0.162 7.831,-1.336 10.036,-3.25 v 0 l 10.264,28.091 c 0.047,0.128 -0.095,0.187 -0.301,0.187 v 0 c -0.266,0 -0.638,-0.098 -0.849,-0.274 m -9.774,-16.431 1.333,0.004 -3.408,-4.464 c -0.127,-0.167 -0.293,-0.296 -0.495,-0.387 v 0 c -0.203,-0.09 -0.41,-0.133 -0.619,-0.129 v 0 c -0.233,0.005 -0.402,0.072 -0.506,0.201 v 0 l -2.8,3.484 -2.857,-3.499 -1.273,0.025 3.541,4.286 c 0.121,0.147 0.277,0.263 0.467,0.348 v 0 c 0.191,0.087 0.39,0.129 0.597,0.131 v 0 c 0.096,0 0.179,-0.013 0.249,-0.037 v 0 c 0.069,-0.025 0.128,-0.067 0.178,-0.125 v 0 l 2.87,-3.356 z"
         id="path172"
         inkscape:connector-curvature="0" /></clipPath><linearGradient
       x1="0"
       y1="0"
       x2="1"
       y2="0"
       gradientUnits="userSpaceOnUse"
       gradientTransform="matrix(15.587141,-30.506924,-30.506924,-15.587141,119.05305,417.01477)"
       spreadMethod="pad"
       id="linearGradient186"><stop
         style="stop-opacity:1;stop-color:#e02b37"
         offset="0"
         id="stop180" /><stop
         style="stop-opacity:1;stop-color:#e02b37"
         offset="0.5260686"
         id="stop182" /><stop
         style="stop-opacity:1;stop-color:#671010"
         offset="1"
         id="stop184" /></linearGradient><clipPath
       clipPathUnits="userSpaceOnUse"
       id="clipPath196"><path
         d="M 0,708.661 H 992.126 V 0 H 0 Z"
         id="path194"
         inkscape:connector-curvature="0" /></clipPath><clipPath
       clipPathUnits="userSpaceOnUse"
       id="clipPath204"><path
         d="m 109.397,416.892 h 33.348 v -28.277 h -33.348 z"
         id="path202"
         inkscape:connector-curvature="0" /></clipPath><clipPath
       clipPathUnits="userSpaceOnUse"
       id="clipPath224"><path
         d="m 143.923,414.278 -1.996,-5.822 c 33.056,-0.077 65.115,-12.34 61.397,-33.459 v 0 c -4.378,-24.859 -51.042,-41.618 -96.183,-37.51 v 0 L 98.726,326.761 C 94.964,321.964 88.69,319.735 84.472,321.68 v 0 l -24.345,11.225 c -2.926,1.35 -2.721,5.265 0.26,9.009 v 0 l 6.821,8.567 c -13.737,10.605 -11.98,24.738 1.002,36.02 v 0 c 12.738,11.07 36.718,19.47 61.108,21.454 v 0 l 7.062,5.833 C 104.92,411.141 73.502,399.839 54.967,384.765 v 0 c -24.418,-19.858 -31.904,-51.628 3.415,-73.46 v 0 c 69.961,-43.245 197.376,-14.22 189.888,53.023 v 0 c -3.77,33.854 -52.696,50.127 -96.49,50.127 v 0 c -2.641,0 -5.263,-0.059 -7.857,-0.177 m -83.4,-28.819 c -0.148,0.015 -0.18,0.09 -0.097,0.23 v 0 l 2.142,3.481 0.752,-0.053 -1.729,-2.785 1.709,0.915 1.098,1.794 0.776,-0.055 -1.764,-2.818 4.765,2.608 0.757,-0.053 -6.013,-3.273 c -0.117,-0.063 -0.225,-0.108 -0.326,-0.136 v 0 c -0.1,-0.027 -0.184,-0.038 -0.254,-0.031 v 0 c -0.069,0.007 -0.112,0.029 -0.132,0.069 v 0 c -0.019,0.039 -0.008,0.093 0.033,0.163 v 0 l 0.675,1.106 -1.826,-0.995 c -0.117,-0.063 -0.223,-0.108 -0.319,-0.135 v 0 c -0.078,-0.023 -0.146,-0.034 -0.204,-0.034 v 0 c -0.015,0 -0.029,0.001 -0.043,0.002 m 151.243,-16.18 1.08,11.081 19.825,-1.393 -0.008,-1.955 -16.257,1.213 -0.582,-7.282 16.845,-1.544 -0.008,-2.137 z m 7.155,4.39 0.11,1.658 12.741,-1.03 -0.013,-1.716 z M 65.42,314.904 c 0.446,0.169 0.856,0.495 1.229,0.977 v 0 c 0.405,0.524 0.598,0.976 0.58,1.355 v 0 c -0.018,0.376 -0.228,0.673 -0.63,0.89 v 0 l -3.837,2.068 c -0.379,0.203 -0.656,0.471 -0.83,0.796 v 0 c -0.174,0.324 -0.249,0.682 -0.224,1.075 v 0 c 0.022,0.391 0.136,0.807 0.342,1.251 v 0 c 0.202,0.441 0.49,0.886 0.861,1.335 v 0 c 0.361,0.436 0.746,0.813 1.155,1.13 v 0 c 0.41,0.318 0.827,0.557 1.252,0.72 v 0 c 0.426,0.163 0.855,0.247 1.289,0.248 v 0 c 0.434,0.003 0.853,-0.091 1.257,-0.285 v 0 l 6.097,-2.928 -1.538,-2.006 -6.096,3.033 c -0.328,0.164 -0.677,0.171 -1.046,0.026 v 0 c -0.37,-0.147 -0.727,-0.432 -1.072,-0.855 v 0 c -0.347,-0.426 -0.527,-0.803 -0.537,-1.133 v 0 c -0.01,-0.329 0.142,-0.576 0.455,-0.74 v 0 l 3.827,-2.004 c 0.878,-0.459 1.333,-1.093 1.358,-1.907 v 0 c 0.024,-0.822 -0.416,-1.83 -1.33,-3.026 v 0 c -0.399,-0.523 -0.828,-0.976 -1.283,-1.36 v 0 c -0.457,-0.383 -0.925,-0.675 -1.404,-0.873 v 0 c -0.478,-0.198 -0.959,-0.29 -1.441,-0.277 v 0 c -0.481,0.015 -0.946,0.154 -1.394,0.42 v 0 l -6.136,3.623 1.677,2.034 6.148,-3.499 c 0.23,-0.131 0.468,-0.197 0.713,-0.197 v 0 c 0.182,0 0.368,0.036 0.558,0.109"
         id="path222"
         inkscape:connector-curvature="0" /></clipPath><linearGradient
       x1="0"
       y1="0"
       x2="1"
       y2="0"
       gradientUnits="userSpaceOnUse"
       gradientTransform="matrix(172.68265,-89.65815,-89.65815,-172.68265,55.99955,398.49222)"
       spreadMethod="pad"
       id="linearGradient236"><stop
         style="stop-opacity:1;stop-color:#173e8d"
         offset="0"
         id="stop230" /><stop
         style="stop-opacity:1;stop-color:#173e8d"
         offset="0.5260686"
         id="stop232" /><stop
         style="stop-opacity:1;stop-color:#b0b9da"
         offset="1"
         id="stop234" /></linearGradient><clipPath
       clipPathUnits="userSpaceOnUse"
       id="clipPath246"><path
         d="m 109.736,404.594 c -0.183,-0.063 -0.318,-0.176 -0.3,-0.253 v 0 l 0.333,-1.452 c 0.233,0.051 0.466,0.101 0.701,0.151 v 0 l -0.368,1.531 c -0.011,0.043 -0.067,0.065 -0.147,0.065 v 0 c -0.062,0 -0.139,-0.014 -0.219,-0.042"
         id="path244"
         inkscape:connector-curvature="0" /></clipPath><linearGradient
       x1="0"
       y1="0"
       x2="1"
       y2="0"
       gradientUnits="userSpaceOnUse"
       gradientTransform="matrix(0.8618891,0.3422045,0.3793307,-0.9627117,109.49714,403.57712)"
       spreadMethod="pad"
       id="linearGradient258"><stop
         style="stop-opacity:1;stop-color:#173e8d"
         offset="0"
         id="stop252" /><stop
         style="stop-opacity:1;stop-color:#173e8d"
         offset="0.5260686"
         id="stop254" /><stop
         style="stop-opacity:1;stop-color:#b0b9da"
         offset="1"
         id="stop256" /></linearGradient><clipPath
       clipPathUnits="userSpaceOnUse"
       id="clipPath268"><path
         d="m 84.894,396.293 c -0.154,-0.095 -0.209,-0.204 -0.125,-0.243 v 0 l 1.924,-0.871 c 0.221,0.105 0.441,0.211 0.664,0.315 v 0 l -2.03,0.904 c -0.02,0.009 -0.047,0.013 -0.078,0.013 v 0 c -0.098,0 -0.237,-0.044 -0.355,-0.118"
         id="path266"
         inkscape:connector-curvature="0" /></clipPath><linearGradient
       x1="0"
       y1="0"
       x2="1"
       y2="0"
       gradientUnits="userSpaceOnUse"
       gradientTransform="matrix(2.066854,0.820624,0.9096544,-2.3086319,84.993256,395.42612)"
       spreadMethod="pad"
       id="linearGradient280"><stop
         style="stop-opacity:1;stop-color:#173e8d"
         offset="0"
         id="stop274" /><stop
         style="stop-opacity:1;stop-color:#173e8d"
         offset="0.5260686"
         id="stop276" /><stop
         style="stop-opacity:1;stop-color:#b0b9da"
         offset="1"
         id="stop278" /></linearGradient><clipPath
       clipPathUnits="userSpaceOnUse"
       id="clipPath290"><path
         d="m 161.855,405.983 -4.014,-1.976 c 0.263,-0.05 0.527,-0.101 0.787,-0.153 v 0 l 3.803,1.874 c 0.209,0.104 0.249,0.244 0.09,0.314 v 0 c -0.06,0.027 -0.139,0.039 -0.226,0.039 v 0 c -0.144,0 -0.309,-0.034 -0.44,-0.098"
         id="path288"
         inkscape:connector-curvature="0" /></clipPath><linearGradient
       x1="0"
       y1="0"
       x2="1"
       y2="0"
       gradientUnits="userSpaceOnUse"
       gradientTransform="matrix(4.7908792,1.9021713,2.1085401,-5.3513098,157.85524,403.97247)"
       spreadMethod="pad"
       id="linearGradient302"><stop
         style="stop-opacity:1;stop-color:#173e8d"
         offset="0"
         id="stop296" /><stop
         style="stop-opacity:1;stop-color:#173e8d"
         offset="0.5260686"
         id="stop298" /><stop
         style="stop-opacity:1;stop-color:#b0b9da"
         offset="1"
         id="stop300" /></linearGradient><clipPath
       clipPathUnits="userSpaceOnUse"
       id="clipPath312"><path
         d="m 190.569,394.483 -7.553,-1.155 c 0.201,-0.175 0.397,-0.351 0.59,-0.529 v 0 l 7.235,1.096 c 0.35,0.052 0.571,0.228 0.494,0.39 v 0 c -0.06,0.131 -0.293,0.213 -0.562,0.213 v 0 c -0.067,0 -0.135,-0.005 -0.204,-0.015"
         id="path310"
         inkscape:connector-curvature="0" /></clipPath><linearGradient
       x1="0"
       y1="0"
       x2="1"
       y2="0"
       gradientUnits="userSpaceOnUse"
       gradientTransform="matrix(7.5211139,2.9861841,3.3101585,-8.4009237,183.45398,392.21542)"
       spreadMethod="pad"
       id="linearGradient324"><stop
         style="stop-opacity:1;stop-color:#173e8d"
         offset="0"
         id="stop318" /><stop
         style="stop-opacity:1;stop-color:#173e8d"
         offset="0.5260686"
         id="stop320" /><stop
         style="stop-opacity:1;stop-color:#b0b9da"
         offset="1"
         id="stop322" /></linearGradient><clipPath
       clipPathUnits="userSpaceOnUse"
       id="clipPath334"><path
         d="m 69.352,386.554 c -0.132,-0.117 -0.137,-0.219 -0.011,-0.23 v 0 l 3.177,-0.273 c 0.162,0.144 0.324,0.288 0.489,0.431 v 0 l -3.185,0.263 c -0.007,10e-4 -0.014,10e-4 -0.021,10e-4 v 0 c -0.128,0 -0.324,-0.082 -0.449,-0.192"
         id="path332"
         inkscape:connector-curvature="0" /></clipPath><linearGradient
       x1="0"
       y1="0"
       x2="1"
       y2="0"
       gradientUnits="userSpaceOnUse"
       gradientTransform="matrix(3.2833369,1.3036165,1.4450474,-3.6674173,69.496323,385.75607)"
       spreadMethod="pad"
       id="linearGradient346"><stop
         style="stop-opacity:1;stop-color:#173e8d"
         offset="0"
         id="stop340" /><stop
         style="stop-opacity:1;stop-color:#173e8d"
         offset="0.5260686"
         id="stop342" /><stop
         style="stop-opacity:1;stop-color:#b0b9da"
         offset="1"
         id="stop344" /></linearGradient><clipPath
       clipPathUnits="userSpaceOnUse"
       id="clipPath356"><path
         d="m 171.403,356.836 7,-3.168 c 0.085,-0.039 0.176,-0.065 0.268,-0.081 v 0 c 0.324,-0.057 0.668,0.02 0.849,0.212 v 0 c 0.233,0.246 0.11,0.583 -0.272,0.753 v 0 l -6.665,2.97 c -0.389,-0.23 -0.781,-0.46 -1.18,-0.686"
         id="path354"
         inkscape:connector-curvature="0" /></clipPath><linearGradient
       x1="0"
       y1="0"
       x2="1"
       y2="0"
       gradientUnits="userSpaceOnUse"
       gradientTransform="matrix(6.2042398,2.4633322,2.730582,-6.9300036,172.44293,354.19681)"
       spreadMethod="pad"
       id="linearGradient368"><stop
         style="stop-opacity:1;stop-color:#173e8d"
         offset="0"
         id="stop362" /><stop
         style="stop-opacity:1;stop-color:#173e8d"
         offset="0.5260686"
         id="stop364" /><stop
         style="stop-opacity:1;stop-color:#b0b9da"
         offset="1"
         id="stop366" /></linearGradient><clipPath
       clipPathUnits="userSpaceOnUse"
       id="clipPath378"><path
         d="m 123.29,343.921 1.1,-4.796 c 0.04,-0.173 0.178,-0.298 0.36,-0.352 v 0 c 0.128,-0.036 0.277,-0.037 0.429,0.007 v 0 c 0.368,0.105 0.608,0.431 0.538,0.728 v 0 l -1.08,4.497 c -0.45,-0.03 -0.898,-0.058 -1.347,-0.084"
         id="path376"
         inkscape:connector-curvature="0" /></clipPath><linearGradient
       x1="0"
       y1="0"
       x2="1"
       y2="0"
       gradientUnits="userSpaceOnUse"
       gradientTransform="matrix(1.8807051,0.7467154,0.8277274,-2.1007075,123.60725,341.09882)"
       spreadMethod="pad"
       id="linearGradient390"><stop
         style="stop-opacity:1;stop-color:#173e8d"
         offset="0"
         id="stop384" /><stop
         style="stop-opacity:1;stop-color:#173e8d"
         offset="0.5260686"
         id="stop386" /><stop
         style="stop-opacity:1;stop-color:#b0b9da"
         offset="1"
         id="stop388" /></linearGradient><clipPath
       clipPathUnits="userSpaceOnUse"
       id="clipPath400"><path
         d="m 189.346,376.042 9.719,-0.833 c 0.434,-0.038 0.823,0.122 0.87,0.353 v 0 c 0.046,0.231 -0.268,0.447 -0.699,0.483 v 0 l -9.7,0.802 c -0.055,-0.267 -0.12,-0.535 -0.19,-0.805"
         id="path398"
         inkscape:connector-curvature="0" /></clipPath><linearGradient
       x1="0"
       y1="0"
       x2="1"
       y2="0"
       gradientUnits="userSpaceOnUse"
       gradientTransform="matrix(9.0274963,3.5842786,3.973141,-10.083521,190.04694,374.26184)"
       spreadMethod="pad"
       id="linearGradient412"><stop
         style="stop-opacity:1;stop-color:#173e8d"
         offset="0"
         id="stop406" /><stop
         style="stop-opacity:1;stop-color:#173e8d"
         offset="0.5260686"
         id="stop408" /><stop
         style="stop-opacity:1;stop-color:#b0b9da"
         offset="1"
         id="stop410" /></linearGradient><clipPath
       clipPathUnits="userSpaceOnUse"
       id="clipPath422"><path
         d="m 62.456,357.05 c -0.249,-0.123 -0.437,-0.347 -0.422,-0.501 v 0 c 0.007,-0.063 0.047,-0.106 0.11,-0.125 v 0 c 0.09,-0.026 0.225,-0.005 0.372,0.068 v 0 l 5.123,2.524 c -0.116,0.139 -0.228,0.278 -0.339,0.418 v 0 z"
         id="path420"
         inkscape:connector-curvature="0" /></clipPath><linearGradient
       x1="0"
       y1="0"
       x2="1"
       y2="0"
       gradientUnits="userSpaceOnUse"
       gradientTransform="matrix(5.6929102,2.260314,2.5055377,-6.3588595,61.9366,356.78162)"
       spreadMethod="pad"
       id="linearGradient434"><stop
         style="stop-opacity:1;stop-color:#173e8d"
         offset="0"
         id="stop428" /><stop
         style="stop-opacity:1;stop-color:#173e8d"
         offset="0.5260686"
         id="stop430" /><stop
         style="stop-opacity:1;stop-color:#b0b9da"
         offset="1"
         id="stop432" /></linearGradient><clipPath
       clipPathUnits="userSpaceOnUse"
       id="clipPath444"><path
         d="m 61.106,374.697 c -0.18,-0.027 -0.405,-0.163 -0.504,-0.302 v 0 c -0.079,-0.109 -0.056,-0.189 0.042,-0.206 v 0 c 0.028,-0.005 0.062,-0.005 0.101,10e-4 v 0 l 3.657,0.554 c 0.054,0.161 0.113,0.322 0.172,0.483 v 0 z"
         id="path442"
         inkscape:connector-curvature="0" /></clipPath><linearGradient
       x1="0"
       y1="0"
       x2="1"
       y2="0"
       gradientUnits="userSpaceOnUse"
       gradientTransform="matrix(3.8055069,1.510939,1.6748624,-4.25067,60.692059,373.91022)"
       spreadMethod="pad"
       id="linearGradient456"><stop
         style="stop-opacity:1;stop-color:#173e8d"
         offset="0"
         id="stop450" /><stop
         style="stop-opacity:1;stop-color:#173e8d"
         offset="0.5260686"
         id="stop452" /><stop
         style="stop-opacity:1;stop-color:#b0b9da"
         offset="1"
         id="stop454" /></linearGradient><clipPath
       clipPathUnits="userSpaceOnUse"
       id="clipPath466"><path
         d="m 54.967,384.765 c -24.418,-19.858 -31.904,-51.628 3.415,-73.46 v 0 c 0.287,-0.177 0.581,-0.344 0.871,-0.52 v 0 c -35.084,22.282 -27.763,54.028 -3.467,73.893 v 0 c 18.332,14.988 49.321,26.224 80.55,29.075 v 0 l 0.044,0.035 C 104.92,411.141 73.502,399.839 54.967,384.765"
         id="path464"
         inkscape:connector-curvature="0" /></clipPath><linearGradient
       x1="0"
       y1="0"
       x2="1"
       y2="0"
       gradientUnits="userSpaceOnUse"
       gradientTransform="matrix(139.63348,-42.468029,-29.023653,-148.80034,-3.2755754,393.03342)"
       spreadMethod="pad"
       id="linearGradient478"><stop
         style="stop-opacity:1;stop-color:#434f5f"
         offset="0"
         id="stop472" /><stop
         style="stop-opacity:1;stop-color:#434f5f"
         offset="0.5260686"
         id="stop474" /><stop
         style="stop-opacity:1;stop-color:#3d3f47"
         offset="1"
         id="stop476" /></linearGradient><clipPath
       clipPathUnits="userSpaceOnUse"
       id="clipPath488"><path
         d="m 143.923,414.278 -1.996,-5.822 c 33.056,-0.077 65.115,-12.34 61.397,-33.459 v 0 c -4.378,-24.859 -51.042,-41.618 -96.183,-37.51 v 0 L 98.726,326.761 C 94.964,321.964 88.69,319.735 84.472,321.68 v 0 l 2.053,-0.947 c 4.323,-1.993 10.679,0.261 14.44,5.139 v 0 l 8.399,10.894 c 46.112,-4.279 93.459,12.697 97.337,37.944 v 0 c 3.283,21.372 -29.648,33.741 -63.222,33.807 v 0 l 1.903,5.82 c -0.487,-0.018 -0.972,-0.037 -1.459,-0.059"
         id="path486"
         inkscape:connector-curvature="0" /></clipPath><linearGradient
       x1="0"
       y1="0"
       x2="1"
       y2="0"
       gradientUnits="userSpaceOnUse"
       gradientTransform="matrix(173.8961,-52.888641,-36.145344,-185.31229,40.884438,390.33078)"
       spreadMethod="pad"
       id="linearGradient500"><stop
         style="stop-opacity:1;stop-color:#434f5f"
         offset="0"
         id="stop494" /><stop
         style="stop-opacity:1;stop-color:#434f5f"
         offset="0.5260686"
         id="stop496" /><stop
         style="stop-opacity:1;stop-color:#3d3f47"
         offset="1"
         id="stop498" /></linearGradient></defs><sodipodi:namedview
     pagecolor="#ffffff"
     bordercolor="#666666"
     borderopacity="1"
     objecttolerance="10"
     gridtolerance="10"
     guidetolerance="10"
     inkscape:pageopacity="0"
     inkscape:pageshadow="2"
     inkscape:window-width="1366"
     inkscape:window-height="731"
     id="namedview4"
     showgrid="false"
     inkscape:zoom="0.24976681"
     inkscape:cx="-155.34448"
     inkscape:cy="472.44067"
     inkscape:window-x="0"
     inkscape:window-y="0"
     inkscape:window-maximized="1"
     inkscape:current-layer="g10" /><g
     id="g10"
     inkscape:groupmode="layer"
     inkscape:label="Logo North way"
     transform="matrix(1.3333333,0,0,-1.3333333,0,944.88133)"><g
       id="g12"
       style="fill:#e6e6e6"><g
         id="g14"
         clip-path="url(#clipPath18)"
         style="fill:#e6e6e6"><g
           id="g20"
           transform="translate(278.9243,399.6419)"
           style="fill:#e6e6e6"><path
             d="m 0,0 0.266,-46.783 -10.64,-0.061 -0.33,58.04 c -0.011,2.051 0.493,3.681 1.513,4.889 1.016,1.207 2.407,1.816 4.165,1.826 0.82,0.005 1.613,-0.167 2.378,-0.514 0.762,-0.347 1.558,-0.929 2.384,-1.745 l 45.367,-44.504 -0.267,46.783 10.64,0.061 0.334,-58.568 c 0.011,-2.11 -0.491,-3.754 -1.511,-4.933 -1.021,-1.178 -2.35,-1.772 -3.99,-1.781 -1.818,-0.011 -3.522,0.771 -5.115,2.345 z"
             style="fill:#e6e6e6;fill-opacity:1;fill-rule:nonzero;stroke:none"
             id="path22"
             inkscape:connector-curvature="0" /></g><g
           id="g24"
           transform="translate(396.7891,364.6966)"
           style="fill:#e6e6e6"><path
             d="m 0,0 c 2.931,0.017 5.624,0.559 8.082,1.628 2.455,1.07 4.571,2.533 6.349,4.39 1.777,1.857 3.156,4.076 4.14,6.663 0.98,2.585 1.465,5.373 1.448,8.362 -0.017,2.99 -0.534,5.758 -1.543,8.302 -1.013,2.545 -2.417,4.72 -4.215,6.528 -1.799,1.806 -3.931,3.216 -6.398,4.229 -2.47,1.011 -5.169,1.509 -8.099,1.492 l -15.566,-0.089 c -2.873,-0.016 -5.525,-0.545 -7.949,-1.584 -2.429,-1.039 -4.516,-2.474 -6.264,-4.3 -1.749,-1.828 -3.114,-4.005 -4.096,-6.531 -0.984,-2.528 -1.466,-5.315 -1.448,-8.362 0.017,-2.99 0.53,-5.773 1.543,-8.346 1.011,-2.575 2.401,-4.779 4.17,-6.616 1.77,-1.837 3.873,-3.276 6.314,-4.317 2.436,-1.042 5.094,-1.554 7.967,-1.537 z m -15.501,-11.257 c -4.457,-0.025 -8.581,0.787 -12.37,2.436 -3.792,1.649 -7.09,3.917 -9.89,6.803 -2.801,2.886 -4.989,6.317 -6.564,10.296 -1.577,3.977 -2.379,8.282 -2.405,12.913 -0.026,4.69 0.726,8.975 2.258,12.852 1.531,3.879 3.681,7.189 6.449,9.93 2.769,2.743 6.041,4.872 9.815,6.388 3.772,1.516 7.886,2.287 12.343,2.313 L -0.3,52.763 c 4.63,0.026 8.871,-0.712 12.719,-2.215 3.848,-1.503 7.158,-3.623 9.931,-6.362 2.77,-2.741 4.927,-6.027 6.475,-9.857 1.546,-3.831 2.332,-8.064 2.359,-12.694 C 31.21,17.003 30.457,12.689 28.926,8.694 27.394,4.699 25.245,1.242 22.478,-1.675 19.709,-4.593 16.424,-6.898 12.623,-8.59 8.822,-10.283 4.637,-11.143 0.063,-11.168 Z"
             style="fill:#e6e6e6;fill-opacity:1;fill-rule:nonzero;stroke:none"
             id="path26"
             inkscape:connector-curvature="0" /></g><g
           id="g28"
           transform="translate(503.0791,354.1326)"
           style="fill:#e6e6e6"><path
             d="m 0,0 -16.282,17.671 -23.918,-0.136 -0.056,9.849 26.645,0.152 c 4.045,0.023 7.086,1.139 9.127,3.35 2.038,2.209 3.047,5.395 3.023,9.559 -0.023,4.161 -1.111,7.248 -3.263,9.259 -2.151,2.01 -5.162,3.004 -9.03,2.982 l -34.824,-0.198 0.301,-52.763 -11.082,-0.063 -0.364,63.931 45.905,0.261 c 3.635,0.021 6.891,-0.503 9.771,-1.571 C -1.17,61.214 1.272,59.675 3.278,57.664 5.281,55.652 6.821,53.213 7.894,50.347 8.964,47.48 9.51,44.258 9.53,40.683 9.561,35.347 8.427,30.872 6.132,27.252 3.837,23.634 0.614,21.021 -3.54,19.415 L 15.83,0.09 Z"
             style="fill:#e6e6e6;fill-opacity:1;fill-rule:nonzero;stroke:none"
             id="path30"
             inkscape:connector-curvature="0" /></g><g
           id="g32"
           transform="translate(550.3008,354.4012)"
           style="fill:#e6e6e6"><path
             d="m 0,0 -0.301,52.763 -24.27,-0.138 -0.064,11.168 59.709,0.34 0.065,-11.169 -24.27,-0.138 0.3,-52.763 z"
             style="fill:#e6e6e6;fill-opacity:1;fill-rule:nonzero;stroke:none"
             id="path34"
             inkscape:connector-curvature="0" /></g><g
           id="g36"
           transform="translate(651.0791,354.7107)"
           style="fill:#e6e6e6"><path
             d="m 0,0 -0.158,27.789 -32.187,-0.184 -0.056,9.938 32.186,0.183 -0.15,26.469 11.167,0.063 0.365,-64.195 z m -51.444,-0.292 -0.366,64.194 11.168,0.064 0.366,-64.195 z"
             style="fill:#e6e6e6;fill-opacity:1;fill-rule:nonzero;stroke:none"
             id="path38"
             inkscape:connector-curvature="0" /></g><g
           id="g40"
           transform="translate(762.2842,376.9773)"
           style="fill:#e6e6e6"><path
             d="m 0,0 -9.83,-18.788 c -0.641,-1.177 -1.455,-2.061 -2.446,-2.652 -0.995,-0.59 -2.078,-0.891 -3.25,-0.897 -2.581,-0.015 -4.523,1.146 -5.824,3.484 l -33.413,61.104 13.365,0.077 26.135,-49.011 9.574,17.467 -16.802,31.651 13.454,0.077 L 15.954,-6.505 41.705,42.8 54.191,42.872 21.476,-18.609 c -0.639,-1.178 -1.47,-2.062 -2.492,-2.653 -1.021,-0.591 -2.12,-0.891 -3.292,-0.898 -1.173,-0.007 -2.259,0.282 -3.259,0.861 -1,0.579 -1.827,1.454 -2.477,2.624 z"
             style="fill:#e6e6e6;fill-opacity:1;fill-rule:nonzero;stroke:none"
             id="path42"
             inkscape:connector-curvature="0" /></g><g
           id="g44"
           transform="translate(876.9893,356.26)"
           style="fill:#e6e6e6"><path
             d="m 0,0 -9.678,16.039 -30.25,-0.173 5.225,9.088 19.61,0.111 -14.383,23.839 -28.74,-49.235 -12.751,-0.073 36.409,61.415 c 0.64,1.116 1.397,2 2.272,2.651 0.876,0.649 1.93,0.978 3.161,0.985 1.23,0.007 2.273,-0.31 3.127,-0.949 0.853,-0.641 1.606,-1.517 2.257,-2.626 L 13.454,0.077 Z"
             style="fill:#e6e6e6;fill-opacity:1;fill-rule:nonzero;stroke:none"
             id="path46"
             inkscape:connector-curvature="0" /></g><g
           id="g48"
           transform="translate(914.9775,356.4763)"
           style="fill:#e6e6e6"><path
             d="M 0,0 -0.139,24.271 -34.307,63.738 -19.271,63.823 5.783,34.505 30.591,64.107 44.836,64.188 11.029,24.334 11.167,0.063 Z"
             style="fill:#e6e6e6;fill-opacity:1;fill-rule:nonzero;stroke:none"
             id="path50"
             inkscape:connector-curvature="0" /></g><g
           id="g52"
           transform="translate(281.8667,298.8616)"
           style="fill:#e6e6e6"><path
             d="m 0,0 c 0.007,-1.229 -0.208,-2.332 -0.646,-3.307 -0.438,-0.974 -1.055,-1.803 -1.852,-2.487 -0.796,-0.684 -1.744,-1.208 -2.843,-1.571 -1.099,-0.364 -2.299,-0.549 -3.6,-0.557 -0.886,-0.005 -1.723,0.072 -2.51,0.233 -0.787,0.16 -1.489,0.352 -2.105,0.578 -0.616,0.224 -1.136,0.454 -1.559,0.687 -0.423,0.234 -0.714,0.433 -0.872,0.596 -0.158,0.164 -0.274,0.355 -0.346,0.577 -0.073,0.221 -0.11,0.496 -0.112,0.825 -0.002,0.243 0.011,0.444 0.039,0.601 0.028,0.157 0.067,0.286 0.116,0.387 0.049,0.1 0.113,0.168 0.192,0.205 0.078,0.036 0.16,0.053 0.246,0.054 0.2,10e-4 0.483,-0.122 0.85,-0.37 0.365,-0.248 0.839,-0.517 1.419,-0.807 0.581,-0.29 1.276,-0.557 2.085,-0.803 0.81,-0.245 1.75,-0.365 2.822,-0.36 0.872,0.005 1.673,0.128 2.4,0.369 0.728,0.239 1.355,0.583 1.881,1.029 0.527,0.446 0.935,0.995 1.224,1.647 0.29,0.653 0.432,1.393 0.427,2.222 -0.005,0.857 -0.194,1.593 -0.57,2.206 -0.375,0.612 -0.868,1.15 -1.478,1.61 -0.61,0.461 -1.303,0.879 -2.077,1.254 -0.774,0.374 -1.566,0.748 -2.376,1.123 -0.81,0.374 -1.602,0.781 -2.377,1.22 -0.774,0.439 -1.467,0.953 -2.078,1.543 -0.611,0.59 -1.104,1.283 -1.481,2.082 -0.376,0.799 -0.567,1.748 -0.573,2.849 -0.007,1.072 0.181,2.035 0.562,2.887 0.381,0.854 0.921,1.579 1.618,2.176 0.697,0.597 1.534,1.056 2.511,1.376 0.978,0.321 2.053,0.484 3.226,0.49 0.586,0.003 1.179,-0.05 1.78,-0.161 0.601,-0.111 1.171,-0.255 1.708,-0.43 0.537,-0.176 1.017,-0.373 1.44,-0.592 0.423,-0.22 0.703,-0.397 0.839,-0.531 0.137,-0.136 0.223,-0.236 0.259,-0.299 0.037,-0.065 0.069,-0.147 0.098,-0.246 0.029,-0.1 0.051,-0.218 0.067,-0.354 0.015,-0.136 0.023,-0.304 0.024,-0.504 0.001,-0.185 -0.009,-0.353 -0.029,-0.504 -0.021,-0.15 -0.052,-0.279 -0.095,-0.386 -0.042,-0.108 -0.095,-0.191 -0.159,-0.248 -0.064,-0.058 -0.139,-0.086 -0.225,-0.087 -0.157,-0.001 -0.397,0.101 -0.72,0.306 -0.323,0.206 -0.728,0.436 -1.215,0.691 -0.488,0.255 -1.068,0.483 -1.742,0.687 -0.672,0.203 -1.438,0.303 -2.296,0.298 -0.843,-0.005 -1.579,-0.124 -2.207,-0.356 -0.628,-0.232 -1.148,-0.546 -1.56,-0.942 -0.412,-0.395 -0.721,-0.858 -0.925,-1.388 -0.204,-0.531 -0.305,-1.088 -0.301,-1.674 0.005,-0.859 0.195,-1.594 0.57,-2.206 0.375,-0.613 0.871,-1.154 1.489,-1.621 0.617,-0.469 1.317,-0.89 2.098,-1.265 0.781,-0.374 1.577,-0.748 2.387,-1.123 0.81,-0.374 1.605,-0.777 2.387,-1.209 0.782,-0.432 1.481,-0.941 2.1,-1.531 C -1.447,4.299 -0.95,3.607 -0.574,2.816 -0.197,2.025 -0.006,1.086 0,0"
             style="fill:#e6e6e6;fill-opacity:1;fill-rule:nonzero;stroke:none"
             id="path54"
             inkscape:connector-curvature="0" /></g><g
           id="g56"
           transform="translate(379.0376,293.0667)"
           style="fill:#e6e6e6"><path
             d="M 0,0 C 0.001,-0.187 -0.012,-0.351 -0.04,-0.494 -0.067,-0.637 -0.113,-0.759 -0.177,-0.859 -0.241,-0.96 -0.315,-1.035 -0.401,-1.086 -0.486,-1.137 -0.579,-1.162 -0.679,-1.162 l -12.996,-0.074 c -0.258,-0.001 -0.522,0.093 -0.795,0.285 -0.273,0.191 -0.411,0.544 -0.414,1.058 l -0.142,25.048 c -0.003,0.515 0.13,0.87 0.401,1.065 0.271,0.194 0.535,0.292 0.792,0.294 l 12.803,0.072 c 0.1,0.001 0.193,-0.024 0.279,-0.073 0.086,-0.05 0.158,-0.124 0.216,-0.224 0.057,-0.1 0.101,-0.225 0.13,-0.375 0.03,-0.149 0.045,-0.324 0.046,-0.524 0.002,-0.187 -0.012,-0.351 -0.04,-0.494 -0.028,-0.143 -0.07,-0.261 -0.126,-0.355 -0.057,-0.093 -0.128,-0.165 -0.214,-0.216 -0.085,-0.05 -0.178,-0.076 -0.278,-0.076 l -11.387,-0.065 0.055,-9.757 9.822,0.055 c 0.114,0.001 0.214,-0.023 0.3,-0.073 0.087,-0.05 0.159,-0.121 0.216,-0.213 0.058,-0.092 0.102,-0.214 0.131,-0.364 0.029,-0.15 0.045,-0.325 0.046,-0.525 0.001,-0.186 -0.012,-0.347 -0.04,-0.483 -0.028,-0.136 -0.07,-0.247 -0.127,-0.333 C -2.058,12.405 -2.129,12.34 -2.214,12.297 -2.3,12.253 -2.4,12.231 -2.514,12.23 l -9.822,-0.055 0.063,-11.066 11.58,0.066 C -0.593,1.176 -0.5,1.151 -0.414,1.102 -0.328,1.052 -0.252,0.981 -0.187,0.889 -0.122,0.796 -0.075,0.675 -0.045,0.524 -0.016,0.375 -0.001,0.199 0,0"
             style="fill:#e6e6e6;fill-opacity:1;fill-rule:nonzero;stroke:none"
             id="path58"
             inkscape:connector-curvature="0" /></g><g
           id="g60"
           transform="translate(474.6914,312.762)"
           style="fill:#e6e6e6"><path
             d="M 0,0 C -0.007,1.187 -0.277,2.189 -0.811,3.008 -1.344,3.827 -2.234,4.412 -3.48,4.762 -3.895,4.874 -4.346,4.954 -4.832,5.001 -5.318,5.048 -5.955,5.069 -6.741,5.065 l -3.431,-0.019 0.058,-10.187 3.989,0.023 c 1.072,0.006 1.993,0.143 2.764,0.413 0.77,0.268 1.408,0.633 1.913,1.094 0.505,0.46 0.873,0.998 1.106,1.614 C -0.11,-1.381 0.004,-0.715 0,0 m 4.724,-19.811 c 0,-0.1 -0.017,-0.186 -0.053,-0.257 -0.035,-0.073 -0.103,-0.133 -0.202,-0.184 -0.1,-0.051 -0.239,-0.091 -0.418,-0.12 -0.178,-0.03 -0.404,-0.045 -0.675,-0.047 -0.243,-0.001 -0.447,0.008 -0.611,0.028 -0.165,0.021 -0.305,0.063 -0.419,0.127 -0.115,0.064 -0.208,0.149 -0.281,0.256 -0.072,0.107 -0.137,0.245 -0.195,0.417 l -2.633,6.719 c -0.304,0.756 -0.631,1.469 -0.977,2.139 -0.347,0.67 -0.765,1.25 -1.254,1.741 -0.489,0.49 -1.077,0.876 -1.765,1.158 -0.688,0.282 -1.511,0.421 -2.469,0.415 l -2.874,-0.017 0.072,-12.501 c 0,-0.086 -0.021,-0.166 -0.063,-0.237 -0.043,-0.072 -0.114,-0.13 -0.214,-0.173 -0.1,-0.044 -0.232,-0.08 -0.396,-0.109 -0.164,-0.029 -0.375,-0.045 -0.632,-0.047 -0.243,-0.001 -0.451,0.012 -0.623,0.04 -0.171,0.027 -0.307,0.063 -0.407,0.105 -0.101,0.042 -0.173,0.098 -0.216,0.17 -0.043,0.071 -0.065,0.15 -0.065,0.236 l -0.148,25.97 c -0.003,0.514 0.13,0.869 0.401,1.063 0.27,0.194 0.535,0.293 0.792,0.294 l 5.211,0.03 c 0.686,0.004 1.255,-0.01 1.705,-0.044 0.451,-0.033 0.862,-0.078 1.234,-0.132 1.059,-0.18 1.983,-0.475 2.772,-0.885 C 0.109,5.934 0.763,5.426 1.281,4.821 1.799,4.217 2.186,3.532 2.44,2.77 2.694,2.006 2.824,1.181 2.829,0.294 2.834,-0.62 2.71,-1.439 2.457,-2.163 2.204,-2.887 1.843,-3.525 1.375,-4.078 0.906,-4.631 0.344,-5.109 -0.312,-5.514 c -0.655,-0.404 -1.375,-0.744 -2.16,-1.02 0.473,-0.212 0.9,-0.474 1.281,-0.786 0.38,-0.313 0.733,-0.69 1.057,-1.131 0.324,-0.442 0.631,-0.95 0.92,-1.528 0.289,-0.578 0.579,-1.223 0.869,-1.936 l 2.632,-6.462 c 0.188,-0.499 0.308,-0.842 0.359,-1.027 0.051,-0.186 0.077,-0.321 0.078,-0.407"
             style="fill:#e6e6e6;fill-opacity:1;fill-rule:nonzero;stroke:none"
             id="path62"
             inkscape:connector-curvature="0" /></g><g
           id="g64"
           transform="translate(570.9746,293.472)"
           style="fill:#e6e6e6"><path
             d="m 0,0 c -0.042,-0.114 -0.106,-0.211 -0.191,-0.29 -0.086,-0.079 -0.197,-0.141 -0.331,-0.185 -0.136,-0.044 -0.3,-0.077 -0.494,-0.099 -0.192,-0.023 -0.411,-0.034 -0.654,-0.035 -0.171,-0.001 -0.328,0.001 -0.472,0.007 -0.142,0.006 -0.271,0.02 -0.385,0.04 -0.115,0.022 -0.215,0.046 -0.301,0.075 -0.086,0.027 -0.165,0.062 -0.236,0.105 -0.073,0.042 -0.13,0.092 -0.173,0.15 -0.043,0.056 -0.079,0.128 -0.109,0.213 l -9.65,26.345 c -0.087,0.214 -0.127,0.389 -0.121,0.525 0.007,0.135 0.059,0.24 0.159,0.311 0.1,0.072 0.25,0.12 0.45,0.143 0.199,0.022 0.464,0.034 0.793,0.036 0.272,0.002 0.489,-0.008 0.654,-0.029 0.165,-0.02 0.293,-0.051 0.387,-0.093 0.093,-0.043 0.165,-0.1 0.215,-0.171 0.051,-0.071 0.098,-0.156 0.141,-0.257 l 8.76,-24.376 h 0.022 l 8.224,24.474 c 0.028,0.099 0.063,0.185 0.106,0.257 0.042,0.072 0.117,0.129 0.224,0.173 0.107,0.043 0.253,0.077 0.439,0.099 0.186,0.022 0.429,0.034 0.729,0.036 0.329,0.002 0.589,-0.011 0.783,-0.038 0.193,-0.027 0.329,-0.077 0.408,-0.147 0.079,-0.072 0.115,-0.171 0.109,-0.3 C 9.479,26.84 9.435,26.668 9.35,26.453 Z"
             style="fill:#e6e6e6;fill-opacity:1;fill-rule:nonzero;stroke:none"
             id="path66"
             inkscape:connector-curvature="0" /></g><g
           id="g68"
           transform="translate(664.5732,293.9622)"
           style="fill:#e6e6e6"><path
             d="m 0,0 c 0,-0.086 -0.021,-0.165 -0.063,-0.236 -0.042,-0.073 -0.114,-0.13 -0.213,-0.173 -0.1,-0.044 -0.233,-0.08 -0.397,-0.11 -0.164,-0.03 -0.375,-0.044 -0.632,-0.046 -0.243,-0.001 -0.451,0.011 -0.622,0.039 -0.172,0.028 -0.308,0.062 -0.408,0.105 -0.101,0.042 -0.173,0.099 -0.216,0.17 -0.043,0.071 -0.065,0.15 -0.065,0.235 L -2.77,26.877 c 0,0.086 0.025,0.164 0.075,0.236 0.049,0.072 0.128,0.129 0.234,0.173 0.107,0.043 0.243,0.08 0.407,0.11 0.164,0.029 0.361,0.044 0.589,0.045 0.258,0.002 0.469,-0.011 0.633,-0.039 0.165,-0.027 0.298,-0.062 0.397,-0.104 0.101,-0.043 0.173,-0.1 0.216,-0.171 0.043,-0.071 0.066,-0.149 0.066,-0.235 z"
             style="fill:#e6e6e6;fill-opacity:1;fill-rule:nonzero;stroke:none"
             id="path70"
             inkscape:connector-curvature="0" /></g><g
           id="g72"
           transform="translate(767.2432,297.8919)"
           style="fill:#e6e6e6"><path
             d="m 0,0 c 0.001,-0.157 -0.005,-0.301 -0.019,-0.43 -0.013,-0.129 -0.034,-0.243 -0.062,-0.342 -0.028,-0.101 -0.066,-0.194 -0.116,-0.281 -0.05,-0.086 -0.142,-0.197 -0.278,-0.334 -0.134,-0.135 -0.43,-0.359 -0.885,-0.67 -0.456,-0.309 -1.03,-0.616 -1.722,-0.921 -0.691,-0.303 -1.487,-0.565 -2.387,-0.785 -0.899,-0.219 -1.892,-0.333 -2.978,-0.339 -1.744,-0.009 -3.326,0.286 -4.745,0.885 -1.418,0.6 -2.628,1.483 -3.628,2.649 -1.001,1.167 -1.774,2.606 -2.32,4.319 -0.546,1.713 -0.825,3.67 -0.838,5.871 -0.012,2.259 0.262,4.287 0.824,6.085 0.561,1.797 1.357,3.324 2.386,4.581 1.03,1.257 2.268,2.222 3.715,2.896 1.448,0.672 3.051,1.014 4.809,1.024 0.829,0.005 1.634,-0.069 2.414,-0.223 0.78,-0.152 1.5,-0.348 2.159,-0.588 0.658,-0.239 1.25,-0.514 1.774,-0.826 0.523,-0.311 0.882,-0.563 1.076,-0.755 0.194,-0.192 0.316,-0.331 0.367,-0.417 0.051,-0.085 0.091,-0.181 0.12,-0.288 0.029,-0.107 0.051,-0.228 0.066,-0.364 0.015,-0.136 0.023,-0.29 0.024,-0.461 0.001,-0.2 -0.008,-0.376 -0.029,-0.525 -0.021,-0.151 -0.055,-0.28 -0.105,-0.387 -0.05,-0.107 -0.109,-0.19 -0.181,-0.248 -0.071,-0.058 -0.157,-0.087 -0.256,-0.087 -0.201,-0.001 -0.484,0.144 -0.85,0.435 -0.366,0.291 -0.848,0.613 -1.442,0.967 -0.596,0.354 -1.324,0.675 -2.183,0.963 -0.859,0.288 -1.883,0.429 -3.069,0.423 -1.301,-0.008 -2.494,-0.275 -3.577,-0.804 -1.084,-0.528 -2.012,-1.301 -2.786,-2.321 -0.773,-1.019 -1.374,-2.273 -1.8,-3.763 -0.428,-1.489 -0.637,-3.199 -0.625,-5.129 0.009,-1.844 0.219,-3.48 0.627,-4.908 0.409,-1.426 0.995,-2.629 1.758,-3.603 0.764,-0.975 1.704,-1.717 2.823,-2.225 1.118,-0.509 2.384,-0.759 3.799,-0.751 1.159,0.007 2.169,0.159 3.033,0.457 0.863,0.298 1.601,0.628 2.213,0.989 0.613,0.361 1.116,0.689 1.506,0.984 0.392,0.296 0.696,0.443 0.909,0.445 0.086,0 0.158,-0.017 0.215,-0.052 0.058,-0.036 0.105,-0.1 0.141,-0.193 C -0.087,0.86 -0.058,0.735 -0.035,0.578 -0.013,0.421 -0.001,0.229 0,0"
             style="fill:#e6e6e6;fill-opacity:1;fill-rule:nonzero;stroke:none"
             id="path74"
             inkscape:connector-curvature="0" /></g><g
           id="g76"
           transform="translate(863.9004,295.8255)"
           style="fill:#e6e6e6"><path
             d="M 0,0 C 0.001,-0.187 -0.013,-0.351 -0.04,-0.494 -0.068,-0.637 -0.114,-0.759 -0.178,-0.859 -0.241,-0.96 -0.316,-1.035 -0.401,-1.086 -0.487,-1.136 -0.58,-1.162 -0.68,-1.162 l -12.996,-0.074 c -0.257,-0.001 -0.522,0.093 -0.795,0.285 -0.272,0.191 -0.41,0.545 -0.413,1.059 l -0.142,25.047 c -0.003,0.515 0.13,0.87 0.401,1.065 0.271,0.194 0.534,0.292 0.792,0.294 l 12.803,0.073 c 0.099,0 0.192,-0.025 0.278,-0.074 0.087,-0.049 0.158,-0.124 0.216,-0.224 0.057,-0.1 0.101,-0.225 0.131,-0.375 0.029,-0.149 0.045,-0.324 0.046,-0.524 0.001,-0.187 -0.012,-0.351 -0.04,-0.494 -0.028,-0.143 -0.07,-0.261 -0.126,-0.355 -0.057,-0.093 -0.128,-0.165 -0.214,-0.216 -0.085,-0.05 -0.178,-0.076 -0.279,-0.076 l -11.386,-0.064 0.054,-9.758 9.823,0.055 c 0.114,0.001 0.214,-0.023 0.3,-0.073 0.086,-0.05 0.159,-0.12 0.216,-0.213 0.058,-0.092 0.101,-0.214 0.131,-0.364 0.029,-0.149 0.044,-0.325 0.046,-0.525 C -1.833,13.121 -1.847,12.96 -1.875,12.824 -1.902,12.688 -1.944,12.577 -2.001,12.491 -2.058,12.405 -2.129,12.34 -2.215,12.297 -2.3,12.254 -2.4,12.231 -2.515,12.23 l -9.821,-0.055 0.063,-11.066 11.58,0.066 C -0.593,1.176 -0.5,1.151 -0.414,1.102 -0.328,1.052 -0.252,0.981 -0.187,0.889 -0.123,0.796 -0.075,0.675 -0.046,0.524 -0.017,0.375 -0.001,0.2 0,0"
             style="fill:#e6e6e6;fill-opacity:1;fill-rule:nonzero;stroke:none"
             id="path78"
             inkscape:connector-curvature="0" /></g><g
           id="g80"
           transform="translate(960.4844,302.7229)"
           style="fill:#e6e6e6"><path
             d="M 0,0 C 0.007,-1.229 -0.208,-2.332 -0.646,-3.307 -1.084,-4.281 -1.701,-5.11 -2.497,-5.794 -3.294,-6.478 -4.242,-7.001 -5.341,-7.365 -6.439,-7.729 -7.64,-7.914 -8.94,-7.922 c -0.887,-0.005 -1.724,0.072 -2.511,0.233 -0.787,0.16 -1.488,0.352 -2.105,0.578 -0.616,0.224 -1.135,0.454 -1.558,0.687 -0.424,0.234 -0.714,0.433 -0.872,0.596 -0.159,0.164 -0.275,0.356 -0.347,0.577 -0.073,0.222 -0.11,0.496 -0.112,0.825 -0.001,0.243 0.011,0.444 0.04,0.601 0.027,0.157 0.066,0.286 0.115,0.387 0.05,0.1 0.113,0.168 0.192,0.205 0.078,0.036 0.16,0.054 0.246,0.054 0.201,10e-4 0.484,-0.122 0.85,-0.37 0.365,-0.248 0.839,-0.517 1.42,-0.807 0.58,-0.29 1.275,-0.557 2.084,-0.803 0.81,-0.245 1.75,-0.365 2.822,-0.36 0.872,0.005 1.673,0.128 2.401,0.369 0.727,0.239 1.354,0.583 1.88,1.029 0.527,0.446 0.935,0.995 1.224,1.647 0.29,0.653 0.432,1.393 0.428,2.222 -0.005,0.858 -0.195,1.593 -0.57,2.206 -0.375,0.612 -0.869,1.15 -1.479,1.61 -0.61,0.461 -1.303,0.879 -2.076,1.254 -0.775,0.374 -1.567,0.748 -2.376,1.123 -0.811,0.374 -1.603,0.781 -2.377,1.22 -0.775,0.439 -1.468,0.953 -2.078,1.543 -0.612,0.59 -1.105,1.283 -1.482,2.082 -0.376,0.799 -0.567,1.748 -0.573,2.85 -0.007,1.072 0.181,2.034 0.563,2.886 0.38,0.854 0.92,1.579 1.617,2.176 0.697,0.598 1.534,1.056 2.511,1.376 0.978,0.321 2.053,0.484 3.226,0.49 0.586,0.003 1.18,-0.05 1.78,-0.161 0.602,-0.111 1.171,-0.255 1.708,-0.43 0.537,-0.175 1.017,-0.373 1.44,-0.592 0.424,-0.22 0.703,-0.397 0.84,-0.531 0.136,-0.136 0.222,-0.235 0.258,-0.299 0.037,-0.065 0.07,-0.147 0.098,-0.246 0.029,-0.1 0.052,-0.218 0.067,-0.354 0.015,-0.136 0.023,-0.304 0.024,-0.504 0.001,-0.185 -0.009,-0.353 -0.029,-0.504 -0.021,-0.15 -0.052,-0.279 -0.094,-0.386 -0.043,-0.108 -0.096,-0.191 -0.16,-0.248 -0.064,-0.058 -0.139,-0.086 -0.225,-0.087 -0.157,-0.001 -0.396,0.101 -0.72,0.307 -0.323,0.205 -0.728,0.435 -1.215,0.69 -0.488,0.255 -1.068,0.483 -1.742,0.687 -0.672,0.203 -1.438,0.303 -2.296,0.298 -0.843,-0.005 -1.579,-0.124 -2.207,-0.355 -0.628,-0.233 -1.147,-0.547 -1.56,-0.943 -0.412,-0.395 -0.721,-0.858 -0.925,-1.388 -0.204,-0.531 -0.305,-1.088 -0.301,-1.674 0.005,-0.859 0.195,-1.594 0.57,-2.206 0.376,-0.613 0.872,-1.154 1.489,-1.621 0.617,-0.469 1.316,-0.89 2.099,-1.265 0.781,-0.374 1.576,-0.748 2.386,-1.123 0.81,-0.374 1.606,-0.777 2.387,-1.208 0.782,-0.432 1.481,-0.942 2.1,-1.532 C -1.447,4.299 -0.95,3.607 -0.573,2.816 -0.197,2.025 -0.006,1.086 0,0"
             style="fill:#e6e6e6;fill-opacity:1;fill-rule:nonzero;stroke:none"
             id="path82"
             inkscape:connector-curvature="0" /></g></g></g><g
       id="g84"
       style="fill:#e6e6e6"><g
         id="g86"
         clip-path="url(#clipPath90)"
         style="fill:#e6e6e6"><g
           id="g92"
           style="fill:#e6e6e6"><g
             id="g94"
             style="fill:#e6e6e6"><path
               d="m 98,380.215 c -5.425,-6.035 -4.024,-12.395 4.178,-13.852 v 0 c 8.992,-1.597 21.284,3.397 26.192,10.642 v 0 c 4.476,6.606 0.487,11.915 -7.918,12.331 v 0 c -0.351,0.018 -0.707,0.026 -1.066,0.026 v 0 c -7.568,0 -16.6,-3.822 -21.386,-9.147"
               style="fill:#e6e6e6;stroke:none"
               id="path104"
               inkscape:connector-curvature="0" /></g></g></g></g><g
       id="g106"
       style="fill:#e6e6e6"><g
         id="g108"
         clip-path="url(#clipPath112)"
         style="fill:#e6e6e6"><g
           id="g114"
           style="fill:#e6e6e6"><g
             id="g116"
             style="fill:#e6e6e6"><path
               d="M 79.745,363.344 62.626,341.423 c -1.89,-2.422 -1.953,-4.901 -0.055,-5.727 v 0 l 24.341,-10.573 c 2.671,-1.161 6.607,0.242 8.994,3.214 v 0 l 21.494,26.755 c 2.071,2.577 1.124,5.291 -1.893,5.872 v 0 l -28.678,5.529 c -0.251,0.049 -0.517,0.072 -0.794,0.072 v 0 c -2.107,0 -4.831,-1.351 -6.29,-3.221"
               style="fill:#e6e6e6;stroke:none"
               id="path126"
               inkscape:connector-curvature="0" /></g></g></g></g><g
       id="g128"
       style="fill:#e6e6e6"><g
         id="g130"
         clip-path="url(#clipPath134)"
         style="fill:#e6e6e6"><g
           id="g136"
           style="fill:#e6e6e6"><g
             id="g138"
             style="fill:#e6e6e6" /><g
             id="g150"
             style="fill:#e6e6e6"><g
               clip-path="url(#clipPath142)"
               id="g148"
               style="opacity:0.5;fill:#e6e6e6"><g
                 transform="translate(99.4082,380.0662)"
                 id="g146"
                 style="fill:#e6e6e6"><path
                   d="M 0,0 C 4.84,5.448 14.109,9.323 21.82,9.217 21.566,9.239 21.307,9.257 21.044,9.271 13.276,9.655 3.605,5.727 -1.408,0.149 -6.833,-5.887 -5.432,-12.246 2.77,-13.703 3.049,-13.753 3.334,-13.795 3.623,-13.832 -3.992,-12.071 -5.227,-5.884 0,0"
                   style="fill:#e6e6e6;fill-opacity:1;fill-rule:nonzero;stroke:none"
                   id="path144"
                   inkscape:connector-curvature="0" /></g></g></g></g><g
           id="g152"
           style="fill:#e6e6e6"><g
             id="g154"
             style="fill:#e6e6e6" /><g
             id="g166"
             style="fill:#e6e6e6"><g
               clip-path="url(#clipPath158)"
               id="g164"
               style="opacity:0.5;fill:#e6e6e6"><g
                 transform="translate(64.061,340.8567)"
                 id="g162"
                 style="fill:#e6e6e6"><path
                   d="m 0,0 17.079,22.18 c 1.646,2.137 4.941,3.601 7.142,3.176 l -1.452,0.281 c -2.165,0.417 -5.435,-1.034 -7.086,-3.149 L -1.435,0.566 C -3.326,-1.855 -3.389,-4.335 -1.491,-5.16 L 0.013,-5.813 C -1.923,-4.972 -1.89,-2.455 0,0"
                   style="fill:#e6e6e6;fill-opacity:1;fill-rule:nonzero;stroke:none"
                   id="path160"
                   inkscape:connector-curvature="0" /></g></g></g></g></g></g><g
       id="g168"
       style="fill:#e6e6e6"><g
         id="g170"
         clip-path="url(#clipPath174)"
         style="fill:#e6e6e6"><g
           id="g176"
           style="fill:#e6e6e6"><g
             id="g178"
             style="fill:#e6e6e6"><path
               d="m 141.613,416.619 -32.215,-26.89 c 4.263,1.477 8.824,2.292 13.065,2.136 v 0 c 4.382,-0.162 7.831,-1.336 10.036,-3.25 v 0 l 10.264,28.091 c 0.047,0.128 -0.095,0.187 -0.301,0.187 v 0 c -0.266,0 -0.638,-0.098 -0.849,-0.274 m -9.774,-16.431 1.333,0.004 -3.408,-4.464 c -0.127,-0.167 -0.293,-0.296 -0.495,-0.387 v 0 c -0.203,-0.09 -0.41,-0.133 -0.619,-0.129 v 0 c -0.233,0.005 -0.402,0.072 -0.506,0.201 v 0 l -2.8,3.484 -2.857,-3.499 -1.273,0.025 3.541,4.286 c 0.121,0.147 0.277,0.263 0.467,0.348 v 0 c 0.191,0.087 0.39,0.129 0.597,0.131 v 0 c 0.096,0 0.179,-0.013 0.249,-0.037 v 0 c 0.069,-0.025 0.128,-0.067 0.178,-0.125 v 0 l 2.87,-3.356 z"
               style="fill:#e6e6e6;stroke:none"
               id="path188"
               inkscape:connector-curvature="0" /></g></g></g></g><g
       id="g190"
       style="fill:#e6e6e6"><g
         id="g192"
         clip-path="url(#clipPath196)"
         style="fill:#e6e6e6"><g
           id="g198"
           style="fill:#e6e6e6"><g
             id="g200"
             style="fill:#e6e6e6" /><g
             id="g216"
             style="fill:#e6e6e6"><g
               clip-path="url(#clipPath204)"
               id="g214"
               style="opacity:0.19999701;fill:#e6e6e6"><g
                 transform="translate(142.54,416.6897)"
                 id="g208"
                 style="fill:#e6e6e6"><path
                   d="M 0,0 C 0.058,0.048 0.128,0.09 0.205,0.126 0.066,0.281 -0.611,0.193 -0.927,-0.07 l -32.216,-26.891 c 0.539,0.187 1.082,0.362 1.628,0.527 z"
                   style="fill:#e6e6e6;fill-opacity:1;fill-rule:nonzero;stroke:none"
                   id="path206"
                   inkscape:connector-curvature="0" /></g><g
                 transform="translate(123.5054,391.8269)"
                 id="g212"
                 style="fill:#e6e6e6"><path
                   d="M 0,0 C -0.174,0.006 -0.351,0.008 -0.526,0.012 3.608,-0.22 6.875,-1.374 8.993,-3.212 l 0.239,0.654 C 6.999,-1.056 3.854,-0.142 0,0"
                   style="fill:#e6e6e6;fill-opacity:1;fill-rule:nonzero;stroke:none"
                   id="path210"
                   inkscape:connector-curvature="0" /></g></g></g></g></g></g><g
       id="g218"
       style="fill:#e6e6e6"><g
         id="g220"
         clip-path="url(#clipPath224)"
         style="fill:#e6e6e6"><g
           id="g226"
           style="fill:#e6e6e6"><g
             id="g228"
             style="fill:#e6e6e6"><path
               d="m 143.923,414.278 -1.996,-5.822 c 33.056,-0.077 65.115,-12.34 61.397,-33.459 v 0 c -4.378,-24.859 -51.042,-41.618 -96.183,-37.51 v 0 L 98.726,326.761 C 94.964,321.964 88.69,319.735 84.472,321.68 v 0 l -24.345,11.225 c -2.926,1.35 -2.721,5.265 0.26,9.009 v 0 l 6.821,8.567 c -13.737,10.605 -11.98,24.738 1.002,36.02 v 0 c 12.738,11.07 36.718,19.47 61.108,21.454 v 0 l 7.062,5.833 C 104.92,411.141 73.502,399.839 54.967,384.765 v 0 c -24.418,-19.858 -31.904,-51.628 3.415,-73.46 v 0 c 69.961,-43.245 197.376,-14.22 189.888,53.023 v 0 c -3.77,33.854 -52.696,50.127 -96.49,50.127 v 0 c -2.641,0 -5.263,-0.059 -7.857,-0.177 m -83.4,-28.819 c -0.148,0.015 -0.18,0.09 -0.097,0.23 v 0 l 2.142,3.481 0.752,-0.053 -1.729,-2.785 1.709,0.915 1.098,1.794 0.776,-0.055 -1.764,-2.818 4.765,2.608 0.757,-0.053 -6.013,-3.273 c -0.117,-0.063 -0.225,-0.108 -0.326,-0.136 v 0 c -0.1,-0.027 -0.184,-0.038 -0.254,-0.031 v 0 c -0.069,0.007 -0.112,0.029 -0.132,0.069 v 0 c -0.019,0.039 -0.008,0.093 0.033,0.163 v 0 l 0.675,1.106 -1.826,-0.995 c -0.117,-0.063 -0.223,-0.108 -0.319,-0.135 v 0 c -0.078,-0.023 -0.146,-0.034 -0.204,-0.034 v 0 c -0.015,0 -0.029,0.001 -0.043,0.002 m 151.243,-16.18 1.08,11.081 19.825,-1.393 -0.008,-1.955 -16.257,1.213 -0.582,-7.282 16.845,-1.544 -0.008,-2.137 z m 7.155,4.39 0.11,1.658 12.741,-1.03 -0.013,-1.716 z M 65.42,314.904 c 0.446,0.169 0.856,0.495 1.229,0.977 v 0 c 0.405,0.524 0.598,0.976 0.58,1.355 v 0 c -0.018,0.376 -0.228,0.673 -0.63,0.89 v 0 l -3.837,2.068 c -0.379,0.203 -0.656,0.471 -0.83,0.796 v 0 c -0.174,0.324 -0.249,0.682 -0.224,1.075 v 0 c 0.022,0.391 0.136,0.807 0.342,1.251 v 0 c 0.202,0.441 0.49,0.886 0.861,1.335 v 0 c 0.361,0.436 0.746,0.813 1.155,1.13 v 0 c 0.41,0.318 0.827,0.557 1.252,0.72 v 0 c 0.426,0.163 0.855,0.247 1.289,0.248 v 0 c 0.434,0.003 0.853,-0.091 1.257,-0.285 v 0 l 6.097,-2.928 -1.538,-2.006 -6.096,3.033 c -0.328,0.164 -0.677,0.171 -1.046,0.026 v 0 c -0.37,-0.147 -0.727,-0.432 -1.072,-0.855 v 0 c -0.347,-0.426 -0.527,-0.803 -0.537,-1.133 v 0 c -0.01,-0.329 0.142,-0.576 0.455,-0.74 v 0 l 3.827,-2.004 c 0.878,-0.459 1.333,-1.093 1.358,-1.907 v 0 c 0.024,-0.822 -0.416,-1.83 -1.33,-3.026 v 0 c -0.399,-0.523 -0.828,-0.976 -1.283,-1.36 v 0 c -0.457,-0.383 -0.925,-0.675 -1.404,-0.873 v 0 c -0.478,-0.198 -0.959,-0.29 -1.441,-0.277 v 0 c -0.481,0.015 -0.946,0.154 -1.394,0.42 v 0 l -6.136,3.623 1.677,2.034 6.148,-3.499 c 0.23,-0.131 0.468,-0.197 0.713,-0.197 v 0 c 0.182,0 0.368,0.036 0.558,0.109"
               style="fill:#e6e6e6;stroke:none"
               id="path238"
               inkscape:connector-curvature="0" /></g></g></g></g><g
       id="g240"
       style="fill:#e6e6e6"><g
         id="g242"
         clip-path="url(#clipPath246)"
         style="fill:#e6e6e6"><g
           id="g248"
           style="fill:#e6e6e6"><g
             id="g250"
             style="fill:#e6e6e6"><path
               d="m 109.736,404.594 c -0.183,-0.063 -0.318,-0.176 -0.3,-0.253 v 0 l 0.333,-1.452 c 0.233,0.051 0.466,0.101 0.701,0.151 v 0 l -0.368,1.531 c -0.011,0.043 -0.067,0.065 -0.147,0.065 v 0 c -0.062,0 -0.139,-0.014 -0.219,-0.042"
               style="fill:#e6e6e6;stroke:none"
               id="path260"
               inkscape:connector-curvature="0" /></g></g></g></g><g
       id="g262"
       style="fill:#e6e6e6"><g
         id="g264"
         clip-path="url(#clipPath268)"
         style="fill:#e6e6e6"><g
           id="g270"
           style="fill:#e6e6e6"><g
             id="g272"
             style="fill:#e6e6e6"><path
               d="m 84.894,396.293 c -0.154,-0.095 -0.209,-0.204 -0.125,-0.243 v 0 l 1.924,-0.871 c 0.221,0.105 0.441,0.211 0.664,0.315 v 0 l -2.03,0.904 c -0.02,0.009 -0.047,0.013 -0.078,0.013 v 0 c -0.098,0 -0.237,-0.044 -0.355,-0.118"
               style="fill:#e6e6e6;stroke:none"
               id="path282"
               inkscape:connector-curvature="0" /></g></g></g></g><g
       id="g284"
       style="fill:#e6e6e6"><g
         id="g286"
         clip-path="url(#clipPath290)"
         style="fill:#e6e6e6"><g
           id="g292"
           style="fill:#e6e6e6"><g
             id="g294"
             style="fill:#e6e6e6"><path
               d="m 161.855,405.983 -4.014,-1.976 c 0.263,-0.05 0.527,-0.101 0.787,-0.153 v 0 l 3.803,1.874 c 0.209,0.104 0.249,0.244 0.09,0.314 v 0 c -0.06,0.027 -0.139,0.039 -0.226,0.039 v 0 c -0.144,0 -0.309,-0.034 -0.44,-0.098"
               style="fill:#e6e6e6;stroke:none"
               id="path304"
               inkscape:connector-curvature="0" /></g></g></g></g><g
       id="g306"
       style="fill:#e6e6e6"><g
         id="g308"
         clip-path="url(#clipPath312)"
         style="fill:#e6e6e6"><g
           id="g314"
           style="fill:#e6e6e6"><g
             id="g316"
             style="fill:#e6e6e6"><path
               d="m 190.569,394.483 -7.553,-1.155 c 0.201,-0.175 0.397,-0.351 0.59,-0.529 v 0 l 7.235,1.096 c 0.35,0.052 0.571,0.228 0.494,0.39 v 0 c -0.06,0.131 -0.293,0.213 -0.562,0.213 v 0 c -0.067,0 -0.135,-0.005 -0.204,-0.015"
               style="fill:#e6e6e6;stroke:none"
               id="path326"
               inkscape:connector-curvature="0" /></g></g></g></g><g
       id="g328"
       style="fill:#e6e6e6"><g
         id="g330"
         clip-path="url(#clipPath334)"
         style="fill:#e6e6e6"><g
           id="g336"
           style="fill:#e6e6e6"><g
             id="g338"
             style="fill:#e6e6e6"><path
               d="m 69.352,386.554 c -0.132,-0.117 -0.137,-0.219 -0.011,-0.23 v 0 l 3.177,-0.273 c 0.162,0.144 0.324,0.288 0.489,0.431 v 0 l -3.185,0.263 c -0.007,10e-4 -0.014,10e-4 -0.021,10e-4 v 0 c -0.128,0 -0.324,-0.082 -0.449,-0.192"
               style="fill:#e6e6e6;stroke:none"
               id="path348"
               inkscape:connector-curvature="0" /></g></g></g></g><g
       id="g350"
       style="fill:#e6e6e6"><g
         id="g352"
         clip-path="url(#clipPath356)"
         style="fill:#e6e6e6"><g
           id="g358"
           style="fill:#e6e6e6"><g
             id="g360"
             style="fill:#e6e6e6"><path
               d="m 171.403,356.836 7,-3.168 c 0.085,-0.039 0.176,-0.065 0.268,-0.081 v 0 c 0.324,-0.057 0.668,0.02 0.849,0.212 v 0 c 0.233,0.246 0.11,0.583 -0.272,0.753 v 0 l -6.665,2.97 c -0.389,-0.23 -0.781,-0.46 -1.18,-0.686"
               style="fill:#e6e6e6;stroke:none"
               id="path370"
               inkscape:connector-curvature="0" /></g></g></g></g><g
       id="g372"
       style="fill:#e6e6e6"><g
         id="g374"
         clip-path="url(#clipPath378)"
         style="fill:#e6e6e6"><g
           id="g380"
           style="fill:#e6e6e6"><g
             id="g382"
             style="fill:#e6e6e6"><path
               d="m 123.29,343.921 1.1,-4.796 c 0.04,-0.173 0.178,-0.298 0.36,-0.352 v 0 c 0.128,-0.036 0.277,-0.037 0.429,0.007 v 0 c 0.368,0.105 0.608,0.431 0.538,0.728 v 0 l -1.08,4.497 c -0.45,-0.03 -0.898,-0.058 -1.347,-0.084"
               style="fill:#e6e6e6;stroke:none"
               id="path392"
               inkscape:connector-curvature="0" /></g></g></g></g><g
       id="g394"
       style="fill:#e6e6e6"><g
         id="g396"
         clip-path="url(#clipPath400)"
         style="fill:#e6e6e6"><g
           id="g402"
           style="fill:#e6e6e6"><g
             id="g404"
             style="fill:#e6e6e6"><path
               d="m 189.346,376.042 9.719,-0.833 c 0.434,-0.038 0.823,0.122 0.87,0.353 v 0 c 0.046,0.231 -0.268,0.447 -0.699,0.483 v 0 l -9.7,0.802 c -0.055,-0.267 -0.12,-0.535 -0.19,-0.805"
               style="fill:#e6e6e6;stroke:none"
               id="path414"
               inkscape:connector-curvature="0" /></g></g></g></g><g
       id="g416"
       style="fill:#e6e6e6"><g
         id="g418"
         clip-path="url(#clipPath422)"
         style="fill:#e6e6e6"><g
           id="g424"
           style="fill:#e6e6e6"><g
             id="g426"
             style="fill:#e6e6e6"><path
               d="m 62.456,357.05 c -0.249,-0.123 -0.437,-0.347 -0.422,-0.501 v 0 c 0.007,-0.063 0.047,-0.106 0.11,-0.125 v 0 c 0.09,-0.026 0.225,-0.005 0.372,0.068 v 0 l 5.123,2.524 c -0.116,0.139 -0.228,0.278 -0.339,0.418 v 0 z"
               style="fill:#e6e6e6;stroke:none"
               id="path436"
               inkscape:connector-curvature="0" /></g></g></g></g><g
       id="g438"
       style="fill:#e6e6e6"><g
         id="g440"
         clip-path="url(#clipPath444)"
         style="fill:#e6e6e6"><g
           id="g446"
           style="fill:#e6e6e6"><g
             id="g448"
             style="fill:#e6e6e6"><path
               d="m 61.106,374.697 c -0.18,-0.027 -0.405,-0.163 -0.504,-0.302 v 0 c -0.079,-0.109 -0.056,-0.189 0.042,-0.206 v 0 c 0.028,-0.005 0.062,-0.005 0.101,10e-4 v 0 l 3.657,0.554 c 0.054,0.161 0.113,0.322 0.172,0.483 v 0 z"
               style="fill:#e6e6e6;stroke:none"
               id="path458"
               inkscape:connector-curvature="0" /></g></g></g></g><g
       id="g460"
       style="fill:#e6e6e6"><g
         id="g462"
         clip-path="url(#clipPath466)"
         style="fill:#e6e6e6"><g
           id="g468"
           style="fill:#e6e6e6"><g
             id="g470"
             style="fill:#e6e6e6"><path
               d="m 54.967,384.765 c -24.418,-19.858 -31.904,-51.628 3.415,-73.46 v 0 c 0.287,-0.177 0.581,-0.344 0.871,-0.52 v 0 c -35.084,22.282 -27.763,54.028 -3.467,73.893 v 0 c 18.332,14.988 49.321,26.224 80.55,29.075 v 0 l 0.044,0.035 C 104.92,411.141 73.502,399.839 54.967,384.765"
               style="fill:#e6e6e6;stroke:none"
               id="path480"
               inkscape:connector-curvature="0" /></g></g></g></g><g
       id="g482"
       style="fill:#e6e6e6"><g
         id="g484"
         clip-path="url(#clipPath488)"
         style="fill:#e6e6e6"><g
           id="g490"
           style="fill:#e6e6e6"><g
             id="g492"
             style="fill:#e6e6e6"><path
               d="m 143.923,414.278 -1.996,-5.822 c 33.056,-0.077 65.115,-12.34 61.397,-33.459 v 0 c -4.378,-24.859 -51.042,-41.618 -96.183,-37.51 v 0 L 98.726,326.761 C 94.964,321.964 88.69,319.735 84.472,321.68 v 0 l 2.053,-0.947 c 4.323,-1.993 10.679,0.261 14.44,5.139 v 0 l 8.399,10.894 c 46.112,-4.279 93.459,12.697 97.337,37.944 v 0 c 3.283,21.372 -29.648,33.741 -63.222,33.807 v 0 l 1.903,5.82 c -0.487,-0.018 -0.972,-0.037 -1.459,-0.059"
               style="fill:#e6e6e6;stroke:none"
               id="path502"
               inkscape:connector-curvature="0" /></g></g></g></g></g></svg>