<?xml version="1.0" encoding="UTF-8" standalone="no"?>
<svg
   xmlns:dc="http://purl.org/dc/elements/1.1/"
   xmlns:cc="http://creativecommons.org/ns#"
   xmlns:rdf="http://www.w3.org/1999/02/22-rdf-syntax-ns#"
   xmlns:svg="http://www.w3.org/2000/svg"
   xmlns="http://www.w3.org/2000/svg"
   xmlns:sodipodi="http://sodipodi.sourceforge.net/DTD/sodipodi-0.dtd"
   xmlns:inkscape="http://www.inkscape.org/namespaces/inkscape"
   version="1.1"
   id="svg901"
   width="1680"
   height="1120"
   viewBox="0 0 1680 1120"
   sodipodi:docname="torofinal.svg"
   inkscape:version="1.0.2 (e86c870879, 2021-01-15)"
   inkscape:export-filename="/media/fernandot/FernandoTC/FTC/LOGOS/torofinal.png"
   inkscape:export-xdpi="96"
   inkscape:export-ydpi="96">
  <metadata
     id="metadata907">
    <rdf:RDF>
      <cc:Work
         rdf:about="">
        <dc:format>image/svg+xml</dc:format>
        <dc:type
           rdf:resource="http://purl.org/dc/dcmitype/StillImage" />
        <dc:title />
      </cc:Work>
    </rdf:RDF>
  </metadata>
  <defs
     id="defs905">
    <rect
       x="87.518951"
       y="15.895048"
       width="46.843658"
       height="33.822388"
       id="rect1705" />
    <rect
       x="87.518951"
       y="15.895048"
       width="46.843658"
       height="33.822388"
       id="rect1724" />
  </defs>
  <sodipodi:namedview
     pagecolor="#ffffff"
     bordercolor="#666666"
     borderopacity="1"
     objecttolerance="10"
     gridtolerance="10"
     guidetolerance="10"
     inkscape:pageopacity="0"
     inkscape:pageshadow="2"
     inkscape:window-width="1366"
     inkscape:window-height="738"
     id="namedview903"
     showgrid="false"
     inkscape:zoom="0.34597725"
     inkscape:cx="949.04394"
     inkscape:cy="704.36953"
     inkscape:window-x="0"
     inkscape:window-y="0"
     inkscape:window-maximized="1"
     inkscape:current-layer="g944"
     inkscape:document-rotation="0" />
  <g
     inkscape:groupmode="layer"
     inkscape:label="Image"
     id="g909">
    <g
       id="g944"
       transform="matrix(1.3212254,0,0,1.2591928,-172.98473,-142.80489)">
      <g
         inkscape:label="Image"
         id="g182"
         transform="matrix(2.3188426,0,0,2.2952159,361.22481,105.24126)">
        <path
           style="fill:#a0a0a0;stroke:none;stroke-width:0.0078125"
           d=""
           id="path1907" />
        <path
           style="fill:#c00000;fill-opacity:1;stroke:#000000;stroke-width:9.95433;stroke-miterlimit:4;stroke-dasharray:none;stroke-opacity:1"
           d="m 75.271847,361.43546 c -5.110268,-3.83521 -4.924321,-9.05124 0.485203,-13.6105 3.978282,-3.353 4.37136,-4.96582 4.37136,-17.93456 v -14.25022 h 6.181452 c 5.706451,0 6.032797,-0.29759 4.247088,-3.8727 -1.504682,-3.01252 -1.315211,-4.88514 0.85308,-8.43091 1.533041,-2.50701 3.949499,-4.55818 5.369904,-4.55818 1.613846,0 2.582513,-1.82265 2.582513,-4.85922 0,-3.27579 1.134123,-5.17699 3.480343,-5.83441 2.67609,-0.74987 3.23703,-2.01376 2.42754,-5.46955 -1.31161,-5.59944 1.96116,-10.06627 7.37542,-10.06627 5.10188,0 7.90133,-5.46641 13.61116,-26.57836 7.54476,-27.8963 10.30551,-53.20596 9.4505,-86.63939 -0.60655,-23.71663 -1.61706,-33.38839 -4.76065,-45.56412 -2.51453,-9.73933 -4.87508,-15.456623 -6.38161,-15.456623 -2.98287,0 -8.39105,-8.557257 -6.96774,-11.024856 0.57803,-1.002091 -0.73114,-2.093018 -2.90925,-2.424294 -3.93717,-0.598843 -3.96015,-0.78724 -3.96015,-32.452388 V 20.558867 l 15.2998,-0.54134 15.29979,-0.541323 v 9.440603 c 0,9.240531 0.1114,9.440604 5.24563,9.440604 5.12909,0 5.24566,-0.208223 5.24566,-9.367668 v -9.367649 h 19.23404 19.23402 v 9.367649 c 0,9.159493 0.11674,9.367668 5.24564,9.367668 5.13448,0 5.24564,-0.200138 5.24564,-9.440604 v -9.440603 l 15.29981,0.541323 15.29978,0.54134 v 31.850042 c 0,31.665148 -0.023,31.853545 -3.96016,32.452388 -2.17809,0.331276 -3.48724,1.422203 -2.90924,2.424294 1.42334,2.467599 -3.98487,11.024856 -6.96774,11.024856 -1.50657,0 -3.86708,5.717323 -6.38163,15.456623 -3.14358,12.17573 -4.15408,21.84749 -4.76061,45.56412 -0.85499,33.43343 1.90573,58.74309 9.45047,86.63939 5.70988,21.11195 8.5093,26.57836 13.61118,26.57836 5.41427,0 8.68701,4.46683 7.3754,10.06627 -0.80948,3.45579 -0.2485,4.71968 2.42759,5.46955 2.34621,0.65742 3.48029,2.55862 3.48029,5.83441 0,3.03657 0.96871,4.85922 2.58255,4.85922 1.42037,0 3.83681,2.05117 5.3699,4.55818 2.16828,3.54577 2.35778,5.41839 0.85307,8.43091 -1.78571,3.57511 -1.45935,3.8727 4.24712,3.8727 h 6.18142 v 14.25022 c 0,12.96874 0.39311,14.58156 4.37136,17.93456 5.40952,4.55926 5.59545,9.77529 0.4852,13.6105 -3.39759,2.54988 -15.43896,2.91654 -95.78106,2.91654 -80.34212,0 -92.383484,-0.36666 -95.781083,-2.91654 z"
           id="path72"
           inkscape:export-xdpi="96"
           inkscape:export-ydpi="96" />
        <g
           id="g2022"
           transform="matrix(0.76368447,0,0,0.72650471,34.794303,39.663226)">
          <path
             style="fill:#c00000;fill-opacity:1;stroke:#000000;stroke-width:1px;stroke-linecap:butt;stroke-linejoin:miter;stroke-opacity:1"
             d="m 148.39734,290.06322 3.77864,-3.40615 16.67029,-4.15343 23.35225,-0.26646 13.9527,2.79602 7.50021,3.25292 -0.92322,4.6736 -2.25931,2.18489 -4.59705,1.7234 -7.36457,-1.07613 -10.98006,-0.69751 -7.20441,-0.38472 -6.11111,0.11232 -9.79459,1.01648 -8.13815,1.12188 -3.05413,-0.12106 -4.73901,-4.13294 z"
             id="path1999" />
          <path
             style="fill:#c00000;fill-opacity:1;stroke:#000000;stroke-width:1px;stroke-linecap:butt;stroke-linejoin:miter;stroke-opacity:1"
             d="m 139.29172,251.24271 11.48583,-13.9131 5.1482,-1.50829 13.71377,7.21925 19.20908,0.1117 17.22252,-6.35956 5.04981,-0.0866 10.38838,11.89484 0.17703,10.00324 -2.03127,8.57408 1.89712,10.99761 -1.63645,7.30694 -4.14145,2.70933 -13.51845,-3.77116 -17.07481,-3.02762 -9.07501,-0.0595 -15.9071,2.67117 -11.42065,3.12428 -4.71656,-0.41513 -2.46431,-2.84471 -1.70938,-7.80118 1.30945,-13.29109 z"
             id="path1997" />
          <path
             style="fill:#c00000;fill-opacity:1;stroke:#000000;stroke-width:1px;stroke-linecap:butt;stroke-linejoin:miter;stroke-opacity:1"
             d="m 108.84701,189.67536 2.60332,0.003 0.69487,14.74598 -1.07262,18.68695 3.7471,6.2746 14.86604,20.59384 5.67008,15.39373 4.03719,15.65611 9.09283,11.67676 4.73901,4.13294 6.91074,-0.67578 14.07613,-1.34152 9.77556,-0.14081 16.52289,1.55046 5.3617,0.63639 4.59705,-1.7234 3.98072,-4.67384 7.61139,-9.35089 6.22604,-23.11821 8.69069,-16.37389 13.49961,-16.97071 -0.75319,-28.01971 0.83006,-6.08101 3.10775,1.32933 3.03374,20.87419 1.69847,16.35013 -3.85251,4.61478 -13.36175,19.20688 -4.93244,8.09893 -4.47159,17.53899 -2.40108,10.11818 -9.34042,8.80817 -7.89177,6.18013 -11.34964,1.73755 -19.51105,-3.23621 -9.59524,1.70342 -16.06877,1.18971 -10.38983,-2.88802 -12.55634,-14.41586 c 0,0 -3.57188,-10.08577 -3.65341,-10.44967 -0.0815,-0.3639 -1.8098,-9.67537 -1.8098,-9.67537 l -10.34894,-21.90421 -13.64104,-17.39277 0.43417,-17.21852 z"
             id="path1995" />
          <path
             style="fill:#c00000;fill-opacity:1;stroke:#000000;stroke-width:1px;stroke-linecap:butt;stroke-linejoin:miter;stroke-opacity:1"
             d="m 266.96141,191.17416 8.79921,2.87691 14.63782,11.17805 17.58337,16.28498 -0.52015,11.5691 -10.49118,32.70767 -33.19637,47.26527 -16.37202,16.69337 -15.28818,7.36494 -1.93787,-6.60759 13.30113,-22.21242 21.37123,-43.1911 5.93366,-33.65554 -3.2837,-30.23339 -1.18567,-10.38376 z"
             id="path1993" />
          <path
             style="fill:#c00000;fill-opacity:1;stroke:#000000;stroke-width:1px;stroke-linecap:butt;stroke-linejoin:miter;stroke-opacity:1"
             d="m 53.648853,222.58996 c 0,0 26.596973,-26.72476 28.120464,-26.72476 1.523491,0 13.270577,-5.76558 13.270577,-5.76558 l -1.925209,18.40187 0.77845,35.10592 5.999885,29.28231 11.44162,25.50699 17.69127,29.24127 1.74226,7.36945 -6.19284,-0.33005 -18.56399,-10.26295 -39.719974,-50.60922 -14.647014,-40.87526 z"
             id="path1991" />
          <path
             style="fill:#c00000;fill-opacity:1;stroke:#000000;stroke-width:1px;stroke-linecap:butt;stroke-linejoin:miter;stroke-opacity:1"
             d="m 222.23776,204.13049 -4.09855,-7.43555 8.59576,-2.66016 11.97841,-4.67474 4.0144,-1.57305 2.95092,4.7045 -2.49715,20.58264 -14.85936,13.58698 -7.00889,4.83146 -0.79632,0.59453 6.47309,9.9647 2.13721,3.47572 1.15111,7.45557 -3.90488,11.54979 -3.15246,7.6411 -2.44145,-2.41253 0.46194,-8.33572 0.63781,-9.44244 -3.13382,-6.51992 -10.44833,-10.50922 -0.18442,-5.93645 4.04609,-21.79545 2.68961,-5.29448 z"
             id="path1989" />
          <path
             style="fill:#c00000;fill-opacity:1;stroke:#000000;stroke-width:1px;stroke-linecap:butt;stroke-linejoin:miter;stroke-opacity:1"
             d="m 138.59089,270.06863 -3.54672,-6.37963 -4.93055,-15.43962 6.1596,-10.26366 3.49345,-6.02498 -18.45414,-13.73476 -4.61746,-12.30207 -0.60289,-16.12888 2.84508,-4.70531 9.92982,6.3015 10.89438,4.25485 2.96436,5.01427 -1.42932,2.64247 7.75962,-1.0415 4.84975,28.65148 -3.12832,6.41682 -5.44254,5.27917 -4.38339,5.87348 -1.6599,2.76045 0.8129,7.13857 1.02812,10.37314 -1.29657,2.91764 z"
             id="path1987" />
          <path
             style="fill:#c00000;fill-opacity:1;stroke:#000000;stroke-width:1px;stroke-linecap:butt;stroke-linejoin:miter;stroke-opacity:1"
             d="m 257.81271,176.38661 24.17366,-5.0133 14.15726,-16.25055 7.27846,-6.85907 12.70762,1.39916 14.75663,8.79056 2.80175,6.72187 -11.35913,15.99741 -14.90036,8.19936 -15.07763,4.14667 -19.2575,-2.00564 -11.97159,-8.08838 z"
             id="path1985" />
          <path
             style="fill:#c00000;fill-opacity:1;stroke:#000000;stroke-width:1px;stroke-linecap:butt;stroke-linejoin:miter;stroke-opacity:1"
             d="m 28.768295,161.06125 22.936676,-12.94621 10.082932,0.70729 14.279007,17.46901 24.06311,8.42978 2.53293,6.18984 -15.90082,9.77875 -19.316696,1.86881 -20.005806,-5.20762 -18.278472,-19.40625 z"
             id="path1983" />
          <path
             style="fill:#ffbf00;fill-opacity:1;stroke:#000000;stroke-width:1px;stroke-linecap:butt;stroke-linejoin:miter;stroke-opacity:1"
             d="m 123.82428,180.72893 2.67882,-2.53911 6.70448,3.41983 7.02757,5.99955 -0.52317,3.60608 -4.97767,0.8002 -5.86723,-0.62426 z"
             id="path1981" />
          <path
             style="fill:#ffbf00;fill-opacity:1;stroke:#000000;stroke-width:1px;stroke-linecap:butt;stroke-linejoin:miter;stroke-opacity:1"
             d="m 220.65732,188.31111 8.28599,-7.66167 8.97366,-2.72877 -1.02099,7.83906 -5.57793,5.91281 -9.19317,0.78528 z"
             id="path1979" />
          <path
             style="fill:#c00000;fill-opacity:1;stroke:#000000;stroke-width:1px;stroke-linecap:butt;stroke-linejoin:miter;stroke-opacity:1"
             d="m 122.81156,108.65208 16.59483,-10.491627 31.01011,1.872737 37.05133,-0.784205 11.89049,-2.156212 16.91324,7.104207 -2.35537,19.97811 -7.99624,25.0224 10.75742,-2.72756 8.34808,14.97991 -3.57674,9.19918 -5.17829,-0.11405 -12.15194,10.93912 -10.48507,8.65645 -9.40033,-2.36376 4.43611,7.76317 1.08353,16.31546 -1.63994,17.17229 -2.04166,7.77501 -17.22252,6.35956 -16.57582,-0.0104 -12.39841,-3.96986 -5.9685,-8.25922 -3.85313,-25.89877 5.62753,-16.0631 -9.55964,0.57294 -18.98633,-17.2187 -6.31814,-4.35941 -5.6305,-5.48653 11.97971,-18.70163 10.02557,6.28154 -8.9432,-27.48324 z"
             id="path1977" />
          <path
             style="fill:#c00000;fill-opacity:1;stroke:#000000;stroke-width:1px;stroke-linecap:butt;stroke-linejoin:miter;stroke-opacity:1"
             d="m 241.14629,111.28375 28.60555,-4.70936 23.30127,-6.899654 26.67589,-20.453026 18.13968,-28.578609 4.64235,4.803356 -2.67268,23.810012 -21.0222,40.599621 -28.40606,21.25368 -36.379,5.70769 -19.36149,-5.9774 -0.75341,-16.66497 z"
             id="path1975" />
          <path
             style="fill:#c00000;fill-opacity:1;stroke:#000000;stroke-width:1px;stroke-linecap:butt;stroke-linejoin:miter;stroke-opacity:1"
             d="m 22.055374,51.355373 27.407997,36.11668 30.627541,18.671887 40.996708,4.83858 8.09851,19.26751 -4.0495,14.98465 -13.11312,4.35602 -40.571263,-8.48836 -14.451438,-9.29682 -27.104596,-29.3086 -12.724254,-43.294215 z"
             id="path1973" />
          <g
             id="g1566">
            <path
               id="path224"
               style="fill:#000000;fill-opacity:1;stroke-width:0.91201"
               d="m 18.355469,20.675781 c -0.789466,-0.06489 -1.764459,1.216067 -1.988281,3.134766 -1.376346,0.849717 -1.507787,37.684984 -1.472657,39.462891 0.01252,0.633623 0.20981,2.037524 0.5625,4.794921 1.82073,14.23485 9.001227,31.750003 16.660157,43.277341 5.763598,8.67506 16.871843,19.58578 24.902343,24.45899 3.15545,1.91484 5.584328,3.939 5.398438,4.49609 -0.18588,0.55709 -4.105238,2.33223 -8.710938,3.94531 -9.31461,3.26231 -23.27477,10.31083 -27.65625,13.96485 l -2.855469,2.38086 2.052735,4.0664 c 8.06227,15.96973 21.650716,27.6298 35.160156,30.16992 2.99828,0.5638 5.964457,1.16436 6.591797,1.33399 2.49899,0.67572 0.771535,3.78081 -4.515625,8.11328 -5.48348,4.49333 -15.223209,15.07843 -17.105469,18.5918 -0.75104,1.40189 -0.241181,4.18932 2.292969,12.54101 16.8197,55.4321 48.342014,95.10017 93.011715,117.04883 8.14141,4.00027 24.84682,10.04123 33.84375,12.62305 -0.0128,0.008 -0.0383,0.0127 -0.0449,0.0234 -0.29007,0.46887 0.81448,1.01566 2.45508,1.21679 0.5096,0.0625 1.28635,0.0199 2.22656,-0.0918 0.39992,0.0666 0.72548,0.10156 0.96289,0.10156 0.21,0 0.0491,-0.0842 -0.26172,-0.19727 2.43615,-0.34896 5.75636,-1.09323 8.96289,-1.93164 -0.0132,0.0231 0.003,0.0356 0.0645,0.0352 3.75372,-0.0255 23.19875,-7.15284 33.24023,-12.1836 20.8825,-10.46209 40.92812,-26.64257 55.4668,-44.77343 15.85556,-19.77311 29.86896,-47.64265 37.46875,-74.51953 l 2.48633,-8.79493 -6.23633,-6.96093 c -3.4298,-3.82821 -9.04131,-9.46988 -12.4707,-12.53711 -8.31431,-7.43625 -8.23762,-7.99234 1.27734,-9.28321 7.11055,-0.96467 16.83587,-6.40962 23.51172,-13.16406 6.1446,-6.21694 13.6875,-17.73098 13.6875,-20.89258 0,-3.18163 -13.78607,-11.09351 -28.74414,-16.49804 -5.67694,-2.05115 -9.125,-3.78134 -9.125,-4.58008 0,-0.70613 2.40865,-2.69039 5.35156,-4.40821 11.04203,-6.44542 23.29714,-20.08011 30.07227,-33.45703 5.15917,-10.185775 11.73135,-31.503819 11.75,-38.953121 0.002,-5.43e-4 0.002,5.7e-4 0.004,0 1.26163,-0.420123 -0.005,-29.626475 -1.31836,-38.587891 0.0312,-0.02396 0.01,-0.136901 0.01,-0.402344 -0.6574,-5.750893 -2.6181,-3.606817 -5.42383,5.931641 -1.47471,5.013448 -4.84957,13.642347 -7.5,19.175781 -11.64574,24.313332 -25.58522,39.281917 -45.32812,48.673828 -11.26709,5.359886 -16.77695,6.583316 -31.8711,7.070316 l -13.23047,0.42578 -4.80078,-3.65625 c -5.56141,-4.236848 -13.41776,-7.42803 -18.27539,-7.42383 -1.86317,0.0016 -7.08282,0.696931 -11.59961,1.544922 -11.57063,2.17227 -41.54259,2.183512 -52.92383,0.01953 -4.5168,-0.858739 -9.73643,-1.562853 -11.59961,-1.564453 -4.80564,-0.0041 -12.67219,3.16528 -18.25,7.351561 -3.81833,2.86605 -5.6029,3.60354 -8.90625,3.68164 C 86.776589,106.15222 67.515547,98.636885 49.435547,79.732422 35.805487,65.480815 27.583086,49.676541 19.228516,21.664062 19.034044,21.012002 18.714317,20.705276 18.355469,20.675781 Z m 320.074221,35.71875 c 0.75911,0.194829 1.0897,2.216323 0.9082,6.042969 -0.33813,7.129087 -3.71764,20.529615 -7.41601,29.404297 -9.53776,22.886903 -29.47028,40.585773 -54.64063,48.517583 -6.42544,2.02475 -10.64607,2.78202 -11.74414,2.14843 -0.25517,0.007 -0.51035,0.0142 -0.76563,0.0117 -0.34439,-0.004 -0.68887,-0.0125 -1.0332,-0.0195 -0.37864,-0.009 -0.75815,-0.0197 -1.13672,-0.0312 -0.38182,-0.0117 -0.76284,-0.0237 -1.14453,-0.0391 -0.40986,-0.017 -0.81934,-0.0387 -1.22851,-0.0684 -0.43105,-0.0291 -0.8627,-0.0565 -1.29297,-0.0957 -0.38841,-0.0359 -0.77768,-0.0749 -1.16407,-0.1289 -0.34816,-0.0486 -0.6957,-0.10349 -1.03906,-0.17969 -0.34216,-0.0729 -0.68306,-0.15067 -1.02539,-0.22265 -0.34214,-0.0714 -0.68435,-0.13941 -1.02344,-0.22461 -0.29254,-0.0685 -0.58705,-0.13163 -0.8789,-0.20313 -0.29147,-0.0694 -0.58206,-0.13817 -0.875,-0.20117 -0.2683,-0.0601 -0.53714,-0.11966 -0.8086,-0.16406 -0.26296,-0.0455 -0.52568,-0.0918 -0.78906,-0.13477 -0.28677,-0.0468 -0.57359,-0.0961 -0.86133,-0.13672 -0.27632,-0.041 -0.5521,-0.0859 -0.82812,-0.1289 -0.26595,-0.043 -0.5321,-0.0832 -0.79883,-0.1211 -0.23787,-0.0384 -0.47425,-0.0819 -0.71094,-0.12695 -0.23172,-0.0442 -0.46395,-0.0917 -0.69726,-0.12695 -0.21759,-0.0352 -0.43433,-0.0772 -0.65235,-0.10938 -0.21073,-0.0272 -0.42221,-0.0417 -0.63281,-0.0703 -0.21665,-0.027 -0.43262,-0.057 -0.64844,-0.0899 -0.22594,-0.035 -0.45106,-0.0705 -0.67383,-0.12304 -0.20104,-0.047 -0.40285,-0.0982 -0.60156,-0.1543 -0.19706,-0.0557 -0.3925,-0.11717 -0.58984,-0.17187 -0.19819,-0.0566 -0.39317,-0.11809 -0.58984,-0.17969 -0.19561,-0.0608 -0.39236,-0.12074 -0.5879,-0.18164 -0.17258,-0.0578 -0.34345,-0.12454 -0.51757,-0.17774 -0.20021,-0.0669 -0.39838,-0.13862 -0.58594,-0.23632 -0.0526,-0.0284 -0.1011,-0.0634 -0.15235,-0.0938 -0.0493,-0.0128 -0.1,-0.0199 -0.14843,-0.0352 -0.12543,-0.0409 -0.24953,-0.0866 -0.36914,-0.14258 -0.10682,-0.0468 -0.21731,-0.0836 -0.31641,-0.14648 -0.0232,-0.0145 -0.043,-0.0338 -0.0644,-0.0508 -0.0307,-0.009 -0.0617,-0.0169 -0.0918,-0.0273 -0.0321,-0.0103 -0.0655,-0.0193 -0.0977,-0.0293 -0.0294,-0.009 -0.0585,-0.0183 -0.0879,-0.0273 -0.0207,-0.006 -0.0412,-0.0116 -0.0625,-0.0156 -0.0214,-0.005 -0.043,-0.008 -0.0645,-0.0117 -0.0173,-0.004 -0.0356,-0.01 -0.0527,-0.0137 -0.007,-0.002 -0.0126,-0.004 -0.0156,-0.004 -0.0827,-0.01 -0.13264,-0.0426 -0.16406,-0.082 -2.18909,-0.26152 -2.25843,-0.53719 -2.20899,-6.72657 0.0411,-5.14534 0.56762,-7.52002 2.57618,-11.62109 2.86661,-5.85306 2.52969,-5.71285 15.62109,-6.53711 25.8672,-1.62867 45.96728,-10.21623 62,-26.490232 5.98945,-6.079589 13.95657,-17.738666 17.29297,-25.306641 1.53398,-3.479531 2.72135,-5.110845 3.48047,-4.916016 z m -315.134768,0.0039 c 0.713225,0.08374 2.209278,2.352522 3.716797,5.673828 8.29553,18.276396 23.252449,33.433935 41.412109,41.968751 12.19137,5.72938 29.900123,9.5371 44.357422,9.5371 3.49861,0 4.99035,0.45906 6.39648,1.9668 2.76407,2.96379 5.69061,12.66965 5.36329,17.79297 -0.14791,2.31501 -0.31794,3.42279 -0.85352,3.99805 -0.003,0.0476 -0.004,0.0953 -0.01,0.14258 -0.0178,0.11209 -0.0562,0.21899 -0.0977,0.32421 -0.0361,0.0935 -0.0804,0.18389 -0.12891,0.27149 -0.0623,0.10769 -0.14341,0.20287 -0.22851,0.29297 -0.084,0.0862 -0.17694,0.16092 -0.27344,0.23242 -0.0866,0.0637 -0.17377,0.12459 -0.26367,0.18359 -0.10382,0.0672 -0.21096,0.13072 -0.31641,0.19532 -0.10025,0.0612 -0.20169,0.12174 -0.30273,0.18164 -0.0989,0.059 -0.19997,0.11238 -0.30079,0.16796 -0.0931,0.0507 -0.18323,0.10857 -0.27343,0.16407 -0.009,0.006 -0.0181,0.0119 -0.0273,0.0176 -0.13534,0.12465 -0.27307,0.24703 -0.41211,0.36718 -0.1903,0.16361 -0.38233,0.32497 -0.57617,0.48438 -0.2187,0.17822 -0.44986,0.34046 -0.67968,0.5039 -0.21514,0.15486 -0.43676,0.2988 -0.65626,0.44727 -0.19731,0.13267 -0.39046,0.27131 -0.58203,0.41211 -0.20707,0.15729 -0.41757,0.31066 -0.62695,0.46484 -0.21795,0.16331 -0.43722,0.32642 -0.65625,0.48828 -0.20183,0.14749 -0.39822,0.30116 -0.59961,0.44922 -0.22267,0.1609 -0.45027,0.31479 -0.68164,0.46289 -0.24785,0.16041 -0.50637,0.30028 -0.77148,0.42969 -0.27527,0.13497 -0.56104,0.24866 -0.84961,0.35156 -0.28687,0.0975 -0.57275,0.19872 -0.86133,0.29102 -0.2869,0.0889 -0.57266,0.18067 -0.86133,0.26367 -0.33777,0.10154 -0.68372,0.16731 -1.03125,0.22461 -0.32739,0.0514 -0.65523,0.1 -0.98437,0.13867 -0.11039,0.0144 -0.22156,0.009 -0.33204,0.0176 -0.0728,0.0124 -0.14302,0.038 -0.21679,0.0449 -0.0513,0.005 -0.10295,0.002 -0.1543,0.006 -0.007,0.002 -0.0129,0.006 -0.0195,0.008 -0.0265,0.007 -0.0535,0.0145 -0.0801,0.0215 -0.0294,0.008 -0.0578,0.0165 -0.0879,0.0215 -0.0276,0.006 -0.0563,0.0106 -0.084,0.0156 -0.0298,0.005 -0.0603,0.01 -0.0898,0.0137 -0.0318,0.004 -0.0636,0.006 -0.0957,0.006 -0.0301,0.001 -0.0597,0.002 -0.0898,0.002 -0.0306,-1.5e-4 -0.0612,1.8e-4 -0.0918,0 -0.0312,-1.9e-4 -0.0626,2.4e-4 -0.0937,0 -0.0259,-2e-4 -0.0521,-6e-4 -0.0781,-0.002 l -0.0684,0.006 c -0.032,0.002 -0.0656,0.004 -0.0977,0.006 -0.0131,7e-4 -0.0261,5.5e-4 -0.0391,0.002 -0.0353,0.0276 -0.0708,0.0552 -0.11524,0.0664 -0.0393,0.009 -0.0809,0.0136 -0.12109,0.0176 -0.0382,0.003 -0.075,0.0107 -0.11328,0.0117 -0.0445,0.003 -0.0903,0.002 -0.13477,0 -0.0474,-0.003 -0.0934,-0.007 -0.14062,-0.0117 -0.0456,-0.006 -0.0911,-0.0135 -0.13672,-0.0195 -0.05,-0.006 -0.0992,-0.0168 -0.14844,-0.0273 -0.0386,-0.008 -0.0783,-0.0145 -0.11719,-0.0215 -0.0392,-0.006 -0.0781,-0.0164 -0.11719,-0.0234 -0.0157,-0.003 -0.0312,-0.007 -0.0469,-0.01 -0.0169,-7.2e-4 -0.0337,-0.003 -0.0508,-0.004 -0.0356,-0.002 -0.0718,-0.004 -0.10742,-0.006 -0.0321,-0.002 -0.0637,-0.006 -0.0957,-0.008 -0.0316,-0.002 -0.0622,-0.005 -0.0937,-0.008 -0.0285,-0.003 -0.0575,-0.008 -0.0859,-0.0117 -0.0264,-0.004 -0.0539,-0.009 -0.0801,-0.0137 -0.0218,-0.004 -0.0424,-0.008 -0.0645,-0.01 -0.0161,-0.002 -0.0325,-0.004 -0.0488,-0.006 -0.0119,0.009 -0.0153,0.0213 -0.0371,0.0273 -0.84683,-0.0623 -1.74233,-0.21911 -2.68946,-0.48437 -0.008,-0.002 -0.017,-0.002 -0.0254,-0.004 -0.0619,-0.0115 -0.12324,-0.0242 -0.18554,-0.0332 -0.0627,-0.0108 -0.12686,-0.0234 -0.18946,-0.0352 -0.0635,-0.0107 -0.12565,-0.0193 -0.18945,-0.0273 -0.0604,-0.008 -0.12104,-0.0155 -0.18164,-0.0215 -0.0643,-0.007 -0.12916,-0.0154 -0.19336,-0.0234 -0.0702,-0.009 -0.14084,-0.0193 -0.21094,-0.0293 -0.0765,-0.01 -0.15211,-0.0204 -0.22851,-0.0312 -0.077,-0.0108 -0.15524,-0.0193 -0.23242,-0.0293 -0.0757,-0.009 -0.15127,-0.0175 -0.22657,-0.0293 -0.0735,-0.0116 -0.1472,-0.0252 -0.2207,-0.0371 -0.0748,-0.0106 -0.14796,-0.0219 -0.22266,-0.0332 -0.0768,-0.0124 -0.15407,-0.0245 -0.23047,-0.0391 -0.0297,-0.005 -0.0598,-0.0106 -0.0898,-0.0156 -0.0183,2e-5 -0.0366,1.4e-4 -0.0547,0 -0.0535,0 -0.10665,-3e-4 -0.16015,-0.002 -0.0408,-0.001 -0.0823,-3e-4 -0.12305,-0.002 -0.0386,0 -0.0766,-4.2e-4 -0.11523,-0.002 -0.0295,-8e-4 -0.0586,-0.003 -0.0879,-0.004 0.004,0.002 0.005,0.004 0.01,0.006 -0.008,-0.002 -0.0176,-0.004 -0.0254,-0.006 -0.002,-3.6e-4 -0.004,3.5e-4 -0.006,0 -0.0354,-0.003 -0.0703,-0.007 -0.10547,-0.0117 -0.0306,-0.005 -0.0614,-0.01 -0.0918,-0.0156 -0.0306,-0.006 -0.0617,-0.0135 -0.0918,-0.0215 -0.0259,-0.007 -0.0523,-0.0135 -0.0781,-0.0215 -0.0177,-0.005 -0.0338,-0.0145 -0.0508,-0.0215 -0.816886,-0.17271 -1.68984,-0.3632 -2.560545,-0.55273 -0.0084,-0.001 -0.01698,8e-5 -0.02539,-0.002 -0.240547,-0.0348 -0.479597,-0.0757 -0.71875,-0.11914 -0.245623,-0.0422 -0.493046,-0.0765 -0.738281,-0.12109 -0.247996,-0.0436 -0.49618,-0.0906 -0.742187,-0.14453 -0.253511,-0.0551 -0.505859,-0.11605 -0.75586,-0.18555 -0.222173,-0.0575 -0.446136,-0.10555 -0.669922,-0.15625 -0.223243,-0.0523 -0.445945,-0.10283 -0.667968,-0.16015 -0.224166,-0.057 -0.450176,-0.11113 -0.673828,-0.16993 -0.143346,-0.0437 -0.283315,-0.0956 -0.423829,-0.14648 -0.549162,-0.12495 -1.080507,-0.24444 -1.628906,-0.36914 -0.009,-0.002 -0.01669,-0.003 -0.02539,-0.006 -0.07431,-0.0169 -0.145502,-0.0316 -0.220703,-0.0488 -0.363938,-0.0637 -0.740865,-0.13795 -1.130859,-0.2168 0.0578,-5.9e-4 0.108679,-0.003 0.166016,-0.004 -1.311784,-0.30035 -2.587845,-0.58941 -3.814454,-0.86524 -6.842973,-1.90408 -20.192968,-8.30002 -27.18164,-13.04101 -16.13188,-10.94357 -28.642649,-29.451673 -34.105469,-50.455078 -2.58467,-9.937504 -3.431593,-20.63522 -1.681641,-21.25 0.04037,-0.01418 0.08331,-0.01925 0.13086,-0.01367 z m 66.652344,85.624999 c 0.01002,0.002 0.01934,0.004 0.0293,0.006 -1.95e-4,-0.002 0.0019,-0.005 0.002,-0.006 -0.01109,1.6e-4 -0.02008,-1.5e-4 -0.03125,0 z m 0.964843,0.2207 c 0.04539,0.008 0.08299,0.0107 0.123047,0.0156 -0.0059,-8.3e-4 -0.01172,-0.003 -0.01758,-0.004 -0.0058,-8.2e-4 -0.01161,-1.5e-4 -0.01758,-0.002 -0.01641,-0.002 -0.03431,-0.006 -0.05078,-0.008 -0.0185,-0.003 -0.03621,-0.009 -0.05469,-0.0117 -0.01978,-0.004 -0.03896,-0.006 -0.05859,-0.01 0.02598,0.006 0.04978,0.0115 0.07617,0.0176 z m 53.000001,-42.16211 c 3.1931,0.009 7.83302,0.70519 16.39062,2.09375 11.16437,1.81158 29.12638,1.82962 40.14844,0.0371 15.66624,-2.545509 20.26424,-2.727587 23.77149,-0.93359 4.75345,2.43085 9.81889,6.67411 10.49023,8.78711 0.38565,1.21384 -0.24829,3.43505 -1.78516,6.25586 -1.20022,2.20292 -2.14066,4.19784 -2.91992,6.18945 -0.0512,0.21198 -0.10145,0.42424 -0.1582,0.63476 -0.1414,0.4711 -0.25772,0.94892 -0.39258,1.42188 -0.12958,0.42555 -0.26452,0.84875 -0.39062,1.27539 -0.12144,0.44439 -0.27783,0.87717 -0.44336,1.30664 -0.13216,0.31879 -0.22595,0.65138 -0.33985,0.97656 -0.0165,0.0432 -0.0334,0.0861 -0.0508,0.12891 -0.55127,2.40806 -0.95313,5.04027 -1.2793,8.18945 -0.68458,6.61031 -1.45914,9.14309 -4.7539,15.53125 -2.16532,4.1983 -4.09999,8.04357 -4.29883,8.54492 -0.72738,1.83402 4.72272,-3.75661 7.33008,-7.51953 3.02538,-4.3662 4.85669,-4.77301 8.52734,-1.88867 5.5838,4.38766 10.18219,15.33399 6.44141,15.33399 -0.72318,0 -1.56874,-0.41077 -1.87891,-0.91211 -1.19391,-1.92979 -3.11819,-0.74484 -5.54883,3.41796 -3.7229,6.37595 -12.49482,15.10167 -17.5664,17.47461 l -4.42774,2.07227 -4.67578,-2.36719 c -5.0205,-2.54143 -7.00625,-3.05819 -6.53711,-1.40625 0.18243,0.64238 0.72471,1.60213 1.6211,2.91406 5.07373,7.42609 6.81285,13.73795 6.84375,24.8379 0.0314,11.25946 -1.72092,19.47253 -4.8711,22.82226 -1.08542,1.15417 -4.08867,3.03164 -6.67382,4.17188 -3.75195,1.65469 -6.636,2.11664 -14.28321,2.29296 -10.69731,0.24665 -11.17357,0.1694 -18.30859,-2.98437 -6.04642,-2.67259 -7.62332,-4.98528 -9.51172,-13.95313 -2.69016,-12.77529 -0.94593,-25.84122 4.66992,-34.96874 1.79374,-2.91543 3.02386,-5.53894 2.73242,-5.83008 -0.29145,-0.29114 -3.02155,0.58808 -6.0664,1.95312 l -5.53711,2.48047 -3.83399,-1.9668 c -6.25328,-3.20757 -13.37206,-10.78778 -20.46679,-21.79297 -0.13329,-0.20676 -1.33484,0.12174 -2.66797,0.72852 -3.99104,1.81656 -4.56746,-0.0281 -1.78516,-5.70898 2.66946,-5.4505 7.80677,-10.59571 10.57813,-10.59571 1.02869,0 2.85509,1.59693 4.43359,3.875 1.47639,2.13071 3.80682,4.89899 5.17969,6.15235 2.24689,2.0513 2.06246,1.42873 -1.85157,-6.24414 -3.57704,-7.01227 -4.474,-9.77354 -5.05859,-15.56641 -0.93614,-9.27658 -2.27009,-14.09329 -5.50195,-19.87891 -1.46602,-2.62447 -2.66406,-5.36088 -2.66406,-6.08203 0,-1.28864 1.34779,-3.15614 3.36328,-4.99414 0.21794,-0.24105 0.45897,-0.45717 0.72656,-0.64258 1.60829,-1.35198 3.54029,-2.64842 5.56641,-3.63867 2.77506,-1.35631 4.52174,-2.03448 7.71484,-2.02539 z m -4.85547,3.81445 c -0.0343,0.005 -0.0685,0.005 -0.0977,0.0117 -0.0116,0.0103 -0.0252,0.0239 -0.0351,0.0312 0.0411,-0.003 0.082,-0.009 0.12305,-0.0117 0.003,-0.0103 0.006,-0.0211 0.01,-0.0312 z m -0.17773,0.0234 c -0.004,10e-4 -0.0101,0.002 -0.0156,0.002 -0.008,0.004 -0.0151,0.006 -0.0234,0.01 -0.01,0.006 -0.0189,0.0128 -0.0293,0.0176 0.0156,-0.001 0.0312,-0.003 0.0469,-0.004 0.007,-0.009 0.0139,-0.0161 0.0215,-0.0254 z m -0.73047,0.48047 c -0.0166,0.0123 -0.032,0.0272 -0.0488,0.0391 -0.0149,0.0105 -0.005,0.0444 -0.006,0.0684 0.0175,-0.0362 0.0373,-0.0711 0.0547,-0.10742 z m 55.30468,1.40039 c -0.0217,0.002 -0.0447,0.002 -0.0664,0.004 0.004,0.002 0.01,0.002 0.0137,0.004 0.0176,-0.003 0.0352,-0.005 0.0527,-0.008 z m -0.60546,0.0391 c -0.0148,10e-4 -0.0301,0.003 -0.0449,0.004 0.0252,0.003 0.0526,0.01 0.0781,0.0117 -0.0114,-0.006 -0.0219,-0.009 -0.0332,-0.0156 z m -33.18946,9.65821 c -0.0519,-0.0435 0.0838,0.0838 0.14258,0.14453 0.004,-0.003 0.007,-0.005 0.0117,-0.008 -0.0509,-0.0462 -0.10159,-0.0926 -0.1543,-0.13672 z m 6.0625,11.84961 c -0.005,0.0159 -0.009,0.0377 -0.0137,0.0527 0.0224,-0.003 0.0464,-0.007 0.0684,-0.01 -0.0164,-0.0137 -0.0354,-0.028 -0.0547,-0.043 z m -27.77343,13.08789 c -0.003,0.003 -0.007,0.005 -0.01,0.008 0.0584,0.0259 0.0972,0.0419 0.1543,0.0703 0.01,-10e-4 0.0195,-0.004 0.0293,-0.006 -0.002,-0.005 -0.002,-0.006 -0.004,-0.01 -0.0777,-0.0291 -0.10235,-0.0372 -0.16992,-0.0625 z m -47.373051,1.57031 c 0.0021,0 -1.74e-4,0.002 0.0039,0.002 v -0.002 c -0.0013,4e-5 -0.0026,-4e-5 -0.0039,0 z m 0.416015,0.0644 -0.002,0.002 c 0.0026,6.3e-4 0.0052,5e-5 0.0078,0.002 -0.0021,-8e-4 -0.0037,-0.003 -0.0059,-0.004 z m -0.402343,0.0996 c 0.0303,0.007 0.06121,0.0145 0.0918,0.0215 -0.01165,-0.003 -0.02318,-0.007 -0.03516,-0.01 -0.0091,-0.003 -0.01825,-0.005 -0.02734,-0.008 -0.0097,-0.001 -0.01958,-0.003 -0.0293,-0.004 z m 1.5,0.23438 v 0.002 c 0.0039,5.7e-4 0.0078,5e-5 0.01172,0.002 -0.0038,-0.002 -0.0079,-0.002 -0.01172,-0.004 z m -36.716797,7.10156 c 1.555042,0.0816 2.486717,1.21051 4.375,4.4668 7.61355,13.12934 22.1236,22.5 34.83789,22.5 2.96275,0 5.656606,0.43777 5.986326,0.9707 1.56639,2.53184 -8.549582,8.69827 -18.490232,11.27148 -11.15183,2.88672 -23.872728,1.22431 -33.423828,-4.36718 -4.85878,-2.84448 -13.233943,-11.85842 -16.189453,-17.42383 -2.02228,-3.80808 -2.050444,-4.0909 -0.552735,-5.74414 1.793971,-1.98024 18.170096,-10.64517 21.634766,-11.44727 0.71517,-0.16557 1.303918,-0.25376 1.822266,-0.22656 z m 251.330076,0.0879 c 1.88274,-0.0445 4.61913,1.24639 9.83008,3.83398 10.09451,5.01261 14.40625,7.91885 14.40625,9.71289 0,2.23537 -7.27396,12.22908 -11.97266,16.44922 -5.48538,4.9267 -9.18632,6.99724 -16.25195,9.08985 -10.34744,3.06458 -26.35646,0.79796 -36.11133,-5.11133 -7.81109,-4.7318 -7.51222,-7.03821 0.91797,-7.09961 6.50883,-0.0473 15.82238,-3.6319 22.22656,-8.55469 5.12953,-3.94298 6.99219,-6.09403 12.2461,-14.14258 1.79728,-2.75329 2.82625,-4.13322 4.70898,-4.17773 z m -91.86328,1.50391 c -10e-4,0.006 -0.003,0.0134 -0.004,0.0195 0.0259,0.014 0.0599,0.0343 0.041,0.0156 -0.0132,-0.013 -0.0243,-0.023 -0.0371,-0.0352 z m 16.51758,1.70703 c 0.0817,0.0661 0.16399,0.14293 0.24414,0.2207 0.01,-0.004 0.0132,-0.007 0.0234,-0.0117 0.0281,-0.0125 0.0605,-0.01 0.0898,-0.0176 -0.13048,-0.0835 -0.23877,-0.12607 -0.35742,-0.1914 z m -176.718751,0.082 c -0.0083,0.004 -0.01725,0.006 -0.02539,0.01 0.005,0.0311 0.0062,0.0651 0.01172,0.0957 0.03863,-0.0404 0.0553,-0.0541 0.07227,-0.0703 -0.01863,-0.009 -0.04056,-0.0271 -0.05859,-0.0352 z m 160.343751,0.37695 c 0.0429,-0.0417 -0.0761,0.0351 -0.1582,0.0859 -0.001,0.015 0.001,0.034 0,0.0488 0.0528,-0.0449 0.1086,-0.0865 0.1582,-0.13477 z m 17.84375,0.63086 c -0.005,0.007 -0.014,0.0145 -0.0195,0.0215 0.0239,0.007 0.036,0.011 0.0586,0.0176 -0.0125,-0.0119 -0.0266,-0.0273 -0.0391,-0.0391 z m -0.54297,0.63281 -0.002,0.002 c 0.002,0.0178 0.004,0.0318 0.006,0.0488 0.001,0.001 0.002,0.003 0.004,0.004 -0.002,-0.0115 -0.006,-0.045 -0.008,-0.0547 z m -38.83398,1.22852 c -0.09,0.10141 -0.17976,0.20295 -0.26954,0.30469 0.0583,-0.0326 0.12613,-0.052 0.19336,-0.0723 0.0256,-0.0789 0.051,-0.15086 0.0762,-0.23242 z m 20.65429,0.77734 c -0.005,-0.009 -0.05,0.0277 -0.0781,0.0449 0.006,0.0215 0.0157,0.0386 0.0215,0.0605 0.014,-0.0227 0.0328,-0.0425 0.0449,-0.0664 0.0108,-0.0213 0.0148,-0.0333 0.0117,-0.0391 z m -156.712888,0.78711 c 0.01216,0.006 0.07866,0.0365 0.162109,0.0781 -0.01703,-0.0227 -0.0013,4.9e-4 -0.01953,-0.0254 -0.116506,-0.0447 -0.154142,-0.0588 -0.142579,-0.0527 z m 104.384768,1.13281 c 0.0169,0.0191 0.0262,0.0295 0.0449,0.0508 0.007,0.001 0.0152,0.002 0.0234,0.004 -0.004,-0.0163 -0.008,-0.0326 -0.0117,-0.0488 -0.006,-7.1e-4 -0.0117,10e-4 -0.0176,-0.002 -0.003,0.001 0.001,0.01 -0.006,0.01 -0.004,-0.002 -0.003,-0.009 -0.006,-0.0117 -0.009,-8e-4 -0.0182,0.001 -0.0273,-0.002 z m 143.49804,1.38086 c -0.006,0.0125 -0.0132,0.0246 -0.0195,0.0371 0.004,0.002 0.008,0.002 0.0117,0.004 0.002,-0.0169 0.006,-0.0237 0.008,-0.041 z m 20.42969,2.0293 c 0.0189,0.0368 0.0397,0.0726 0.0586,0.10938 0.003,0.003 0.005,0.007 0.008,0.0117 0.0182,-0.003 0.0364,-0.005 0.0547,-0.008 -0.0472,-0.0404 -0.0713,-0.0719 -0.1211,-0.11328 z m -262.716795,2.58203 c 0.01347,0.0294 0.02666,0.059 0.04102,0.0879 0.01396,0.0242 0.02842,0.0483 0.04297,0.0723 -0.0017,-0.017 -0.0051,-0.0401 -0.0078,-0.0606 -0.02577,-0.0333 -0.04542,-0.0583 -0.07617,-0.0996 z m 117.671875,0.40625 c -0.0132,0.006 -0.0191,0.0108 -0.0332,0.0176 3.9e-4,0.003 -3.6e-4,0.007 0,0.01 0.009,0.007 0.0199,0.0125 0.0293,0.0195 10e-4,-0.0156 0.003,-0.0313 0.004,-0.0469 z m 5.1582,1.06446 c 7.8e-4,0.003 -0.001,0.005 0.002,0.008 0.0165,0.0561 0.0323,0.16833 0.0488,0.24414 0.009,-7.7e-4 0.0181,0.001 0.0274,-0.002 0.007,-0.0572 0.0124,-0.11464 0.0195,-0.17188 -0.01,-0.0322 -0.0257,-0.0539 -0.0469,-0.0684 -0.0169,-0.003 -0.0339,-0.006 -0.0508,-0.01 z m 112.52735,1.5332 c -0.12988,0.0426 -0.0884,0.0328 -0.15625,0.0566 0.0553,-0.009 0.0686,-0.005 0.10156,-0.0137 0.0226,-0.006 0.0768,-0.05 0.0547,-0.043 z m -70.33008,0.57031 c -0.009,0.0166 -0.0162,0.0342 -0.0254,0.0508 -0.0132,0.034 -0.0271,0.0657 -0.041,0.0977 0.003,-1.5e-4 0.006,-0.002 0.01,-0.002 0.0143,-0.0234 0.0328,-0.0525 0.0469,-0.0801 0.0101,-0.0198 0.01,-0.0523 0.01,-0.0664 z m 59.80859,4.45508 c -0.0301,0.0245 -0.0601,0.0492 -0.0898,0.0742 0.008,-5e-4 0.0156,1.7e-4 0.0234,0 0.0222,-0.0246 0.0441,-0.0497 0.0664,-0.0742 z m 8.49414,0.0879 c -0.0255,0.008 -0.0288,0.0173 -0.0391,0.0254 0.0177,-0.003 0.035,-0.008 0.0527,-0.0117 0.0207,-0.004 0.0416,-0.006 0.0625,-0.01 -0.0332,-0.001 -0.0404,-0.003 -0.0762,-0.004 z m 0.14844,0.01 c 0.003,0.006 0.007,0.007 0.01,0.0117 0.005,-0.004 0.0101,-0.008 0.0156,-0.0117 -0.01,-4.4e-4 -0.0152,4.2e-4 -0.0254,0 z m -3.99805,0.93945 c -0.0429,0.0107 -0.0326,0.007 -0.0879,0.0215 0.005,0.004 0.009,0.008 0.0137,0.0117 0.027,-0.008 0.0487,-0.0232 0.0742,-0.0332 z m -216.755856,0.0234 c -0.0039,2.7e-4 -0.0078,0.002 -0.01172,0.002 0.01783,0.0188 0.04126,0.0383 0.05859,0.0566 0.0015,1.6e-4 0.0024,0.002 0.0039,0.002 -0.01785,-0.0195 -0.03227,-0.0415 -0.05078,-0.0605 z m 216.269536,0.83398 c 0.0137,-0.006 -0.0211,0.002 -0.0449,0.008 -0.0124,0.005 -0.0247,0.0105 -0.0371,0.0156 -0.007,0.004 -0.0143,0.008 -0.0215,0.0117 0.0419,-0.0139 0.0703,-0.0204 0.10352,-0.0352 z m -92.53711,0.75977 c -0.0285,0.005 -0.0573,0.007 -0.0859,0.0117 -0.008,0.007 -0.0111,0.014 -0.0195,0.0215 0.008,0.0145 0.0158,0.0285 0.0234,0.043 0.0259,-0.026 0.0586,-0.0495 0.082,-0.0762 z m 107.03125,0.52343 c -0.007,0.01 -0.01,0.0272 -0.01,0.0234 0.0114,-0.006 0.0204,-0.0166 0.0312,-0.0234 -0.007,-9e-5 -0.0143,-1.1e-4 -0.0215,0 z m -0.18164,0.01 c -0.0163,0.002 -0.0326,-0.001 -0.0488,0.002 -0.0144,0.001 -0.0273,0.0109 -0.041,0.0156 0.0297,-0.005 0.0602,-0.0102 0.0899,-0.0156 z m -71.78125,3.81445 c 0.0427,1.4e-4 0.0803,0.005 0.11328,0.0234 2.95028,0.9811 0.66425,8.22623 -3.23047,10.23828 -2.66051,1.37432 -7.37423,1.77513 -8.4336,0.7168 -1.28557,-1.28422 -0.50688,-3.04521 1.90235,-4.30469 1.38013,-0.7215 3.92525,-2.58469 5.65625,-4.14062 1.51461,-1.36145 3.11894,-2.39564 3.84961,-2.51563 v -0.004 c 0.0522,-0.009 0.0999,-0.0138 0.14258,-0.0137 z m -107.64454,0.23242 c 0.82545,-0.0757 2.07144,0.61079 3.72657,2.0625 1.69619,1.48772 4.3533,3.45423 5.90429,4.36914 3.08928,1.82303 3.61797,3.50544 1.375,4.36524 -5.48231,2.10158 -12.11563,-2.39766 -12.21093,-8.28125 -0.0259,-1.60122 0.37963,-2.43988 1.20507,-2.51563 z m 71.4336,1.02149 c -0.0441,0.007 -0.089,0.007 -0.13281,0.0156 -0.0114,0.002 -0.003,0.0372 0.008,0.0332 0.0425,-0.0139 0.0575,-0.0249 0.125,-0.0488 z m 103.4082,0.39648 c -0.008,0.007 -0.0147,0.0131 -0.0234,0.0215 -0.0122,0.0182 -0.0268,0.043 -0.0371,0.0547 -0.003,0.003 0.008,-0.007 0.01,-0.01 0.0334,-0.0469 0.0317,-0.039 0.0508,-0.0664 z M 51.125,181.76562 c -0.0018,0.0379 -0.0051,0.0575 -0.0059,0.10157 0.04161,0.024 0.07535,0.0392 0.115234,0.0605 -9.02e-4,-0.0239 -0.0081,-0.0466 -0.0098,-0.0703 -0.01901,-0.0195 -0.07632,-0.069 -0.09961,-0.0918 z m 0.01563,0.50782 c 2.56e-4,0.005 0.0017,0.009 0.002,0.0137 0.01257,0.0209 0.05331,0.0701 0.08398,0.10547 0.0018,-0.0353 0.0021,-0.0702 0.0039,-0.10547 -0.02994,-0.005 -0.05998,-0.009 -0.08984,-0.0137 z m 163.23047,1.44726 c -0.0439,-0.0178 -0.0266,-0.01 0.084,0.0469 0.10844,0.0562 0.12811,0.0549 0.19726,0.0625 -0.13344,-0.048 -0.23734,-0.0916 -0.28125,-0.10938 z m -94.20117,4.83594 c 0.80464,0.13134 2.57665,1.2665 4.25391,2.75977 3.88885,3.46222 8.16567,5.21093 12.74609,5.21093 2.57339,0 3.0586,0.32889 3.0586,2.07618 0,1.14181 -0.65891,3.01349 -1.4629,4.16015 -1.93038,2.75318 -1.18139,3.2936 2.64844,1.91016 1.73088,-0.62523 3.73215,-0.9116 4.44922,-0.63672 0.79742,0.30568 1.94175,3.63408 2.94531,8.57227 0.90243,4.4404 2.01624,9.91973 2.47461,12.17578 0.45837,2.25605 1.05193,4.79607 1.32032,5.64453 0.32719,1.03432 -1.52852,3.73687 -5.63282,8.20312 -3.36674,3.66365 -6.82136,8.22369 -7.67773,10.13281 -1.40779,3.13848 -1.43396,4.05503 -0.27344,9.57032 0.70596,3.35498 1.16359,7.30019 1.01758,8.76562 -0.5026,5.04416 -2.0984,3.2111 -5.0332,-5.7832 -2.87317,-8.80547 -2.90871,-9.12281 -1.57032,-13.625 0.20045,-0.67426 0.53052,-1.51734 0.93164,-2.4375 l 0.002,-0.004 c 0.0621,-0.17825 0.13734,-0.36186 0.22656,-0.55078 0.053,-0.11218 0.024,-0.0523 0.084,-0.17578 0.0609,-0.1205 0.1333,-0.23521 0.19922,-0.35351 1.09326,-2.33207 2.53805,-4.97972 3.94141,-7.07032 l 4.01562,-5.98047 -2.44336,-1.47656 c -11.39751,-6.88909 -17.06813,-12.36461 -21.21484,-20.48437 -2.64651,-5.1822 -2.14754,-19.64388 0.71094,-20.59571 0.0723,-0.0241 0.16825,-0.01 0.2832,-0.008 z m 121.94727,0.38086 c 1.71094,0.0454 2.13476,2.62424 2.13476,8.50195 0,8.2404 -1.36369,12.12504 -6.55859,18.68555 -3.95679,4.99694 -8.33119,8.69805 -14.79297,12.51562 l -4.21289,2.48829 4.08203,5.95312 c 2.24432,3.27476 4.70451,8.05296 5.4668,10.61719 1.3504,4.54258 1.31809,4.85164 -1.25391,12.0664 -1.45186,4.07273 -2.9272,8.12461 -3.27734,9.00196 -0.35016,0.87736 -1.003,1.59375 -1.45117,1.59375 -1.13353,0 -1.01626,-5.17129 0.28906,-12.77539 1.00917,-5.87891 0.9495,-6.7126 -0.68555,-9.75782 -0.98331,-1.83133 -4.39047,-6.16566 -7.57226,-9.63281 -4.5429,-4.95032 -5.66207,-6.72425 -5.21094,-8.26172 0.31598,-1.07682 1.59643,-7.04111 2.8457,-13.2539 1.24925,-6.21278 2.4898,-11.64809 2.75586,-12.07813 0.66906,-1.08145 4.70526,-0.98518 5.39453,0.12891 0.31017,0.50134 1.39512,0.91211 2.41016,0.91211 1.82543,0 1.82389,-0.0344 -0.14258,-3.21289 -2.39172,-3.86588 -1.84724,-5.90121 1.58203,-5.90821 4.45698,-0.009 9.21897,-1.80152 13.53906,-5.0957 2.14012,-1.63189 3.63164,-2.51549 4.65821,-2.48828 z m -131.84766,1.35156 c 0.20626,-0.0601 0.38618,0.36392 0.70117,1.22461 0.36698,1.00269 0.35368,6.95194 -0.0195,13.21875 -1.29142,21.42511 -1.49459,20.0807 4.02344,26.60938 12.29355,14.54516 20.38979,31.31973 22.12695,45.84375 0.63195,5.28358 0.87086,5.67429 7.5918,12.40429 3.81689,3.82205 7.76189,7.37324 8.76562,7.89063 1.29989,0.67006 3.53123,0.5691 7.75586,-0.34766 9.97093,-2.16373 23.98234,-2.52795 33.98047,-0.88476 13.51482,2.22116 12.66636,2.46927 21.32422,-6.25782 4.65935,-4.69661 7.65625,-8.45807 7.65625,-9.60937 0,-3.67506 2.92978,-15.99679 5.0332,-21.16797 3.17384,-7.80276 10.20549,-19.17104 16.65821,-26.93359 l 5.7207,-6.88282 L 250.99805,208 c -0.41323,-12.17857 -0.30211,-17.12444 0.37109,-16.48633 1.3571,1.28638 4.75584,19.47645 5.36524,28.71485 l 0.51171,7.74804 -6.45507,7.97266 c -3.55007,4.38522 -8.11502,10.7651 -10.14454,14.17773 -6.09684,10.25183 -8.23365,16.61648 -10.55664,31.46094 -0.42537,2.71818 -2.15076,5.20951 -7.89062,11.39453 -4.0402,4.35352 -8.5556,8.68838 -10.03516,9.63281 -2.81612,1.79757 -5.75876,1.74886 -18.09961,-0.29687 -6.37303,-1.05652 -18.91792,-1.08619 -26.00586,0.01 -3.0112,0.45059 -7.93801,1.05552 -10.94921,1.34571 -6.46255,0.6228 -7.34807,0.13976 -15.96876,-8.70117 -7.81583,-8.01552 -10.0371,-11.42472 -10.0371,-15.41211 0,-4.63919 -3.19702,-15.64208 -6.75977,-23.26563 -2.9931,-6.40459 -11.17772,-18.53619 -16.03125,-23.76172 -4.65908,-5.01617 -4.81542,-5.86663 -3.23828,-17.57422 1.65951,-12.319 3.0592,-19.74501 4.33398,-22.98828 0.42287,-1.07586 0.65507,-1.62149 0.86133,-1.68164 z m 90.15625,1.40821 c 0.12109,0.26547 0.2209,0.45617 0.31445,0.62695 -0.10425,-0.21083 -0.20823,-0.42154 -0.31445,-0.62695 z m 40.64453,1.18359 c -0.0116,0 -0.0952,0.0462 -0.11719,0.0527 0.0522,-0.002 0.10101,-0.005 0.14844,-0.01 -0.0104,-0.0102 -0.0207,-0.043 -0.0312,-0.043 z m 27.43946,0.23437 c 3.93282,-0.64063 32.85623,23.2535 36.80859,30.63086 1.32259,2.46873 0.49828,6.72516 -3.82423,19.72461 -5.68784,17.10556 -16.00214,36.01353 -28.83008,52.85157 -7.51091,9.85886 -27.28001,30.31771 -33.79687,34.97656 -7.57116,5.41258 -7.43345,3.62237 0.6875,-8.9043 11.43771,-17.64283 16.47357,-27.04912 22.52148,-42.08203 12.15708,-30.2181 14.2634,-55.81312 6.76172,-82.16016 -0.67342,-2.36527 -0.95695,-4.56878 -0.62891,-4.89648 0.0732,-0.0731 0.17391,-0.11996 0.3008,-0.14063 z m -175.507822,0.0371 c 0.211142,-0.0208 0.363329,0.0119 0.453125,0.10157 0.28619,0.2859 -0.631472,5.13767 -2.039062,10.7832 -2.15609,8.64761 -2.563944,12.20308 -2.589844,22.57031 -0.07686,30.7503 11.153256,62.56846 34.183603,96.8457 2.94551,4.38412 5.35546,8.58907 5.35546,9.34376 0,2.40976 -2.17003,1.49933 -8.69335,-3.6504 -9.97719,-7.87629 -20.535783,-18.63313 -29.552744,-29.90234 -0.02088,-0.0246 -0.04373,-0.0475 -0.06445,-0.0723 -0.328041,-0.38606 -0.649856,-0.77474 -0.957032,-1.17774 -0.197117,-0.25684 -0.38564,-0.52085 -0.576172,-0.7832 -3.405186,-4.36909 -6.570426,-8.7915 -9.355468,-13.13477 -11.12727,-17.35293 -22.886719,-46.88658 -22.886719,-57.47851 0,-3.40123 0.572898,-4.24634 7.580078,-11.17774 9.801675,-9.69566 25.975457,-21.95554 29.142578,-22.26758 z m -3.353515,7.50977 c -0.05133,0.0854 -0.101871,0.1713 -0.154297,0.25586 0.01109,0.0124 0.02638,0.0224 0.03711,0.0352 0.0355,-0.0927 0.08355,-0.20039 0.117188,-0.29101 z m 182.902347,0.61719 c 0.01,0.0285 0.0177,0.0631 0.0273,0.0918 0.0108,0.003 0.0205,0.005 0.0313,0.008 -0.02,-0.0329 -0.0386,-0.0667 -0.0586,-0.0996 z m -136.72461,0.9375 c -0.021,0.0245 -0.0436,0.0476 -0.0644,0.0723 -0.009,0.0185 -0.02,0.0362 -0.0293,0.0547 -0.004,0.009 -0.007,0.0184 -0.0117,0.0273 z m 30.44922,8.9375 c -0.0473,0.005 -0.11822,0.0155 -0.16211,0.0195 0.087,0.0562 0.14774,0.0601 0.16211,-0.0195 z m 61.57813,0.95312 c -0.0335,0.0566 -0.071,0.11066 -0.10352,0.16797 -0.13007,0.22547 -0.25498,0.45439 -0.37891,0.68359 0.037,-0.058 0.0743,-0.11588 0.11133,-0.17382 0.12452,-0.22558 0.24753,-0.45181 0.3711,-0.67774 z m 64.7871,1.89844 c 0.001,0.002 0.003,0.004 0.004,0.006 10e-4,1.2e-4 0.003,-1.2e-4 0.004,0 -0.002,-0.002 -0.005,-0.004 -0.008,-0.006 z m -161.00195,0.63086 c -0.005,-4.1e-4 -0.0102,0.002 -0.0156,0.002 0.0128,0.007 0.0242,0.0152 0.0371,0.0215 -0.0697,-0.0346 0.0538,-0.001 -0.0215,-0.0234 z m 150.60352,3.27344 c 0.0138,0.0673 0.0284,0.13438 0.0449,0.20117 0.0208,0.005 0.0417,0.01 0.0625,0.0156 -0.0358,-0.0722 -0.0716,-0.14452 -0.10742,-0.21679 z m -87.04297,4.26562 c 0.19263,0.45225 0.16334,0.38231 0.14844,0.38867 -0.0553,-0.23657 -0.11677,-0.45094 -0.14844,-0.38867 z m 0.23828,0.38477 c -0.001,-4e-4 -0.0389,0.0551 -0.0664,0.0937 -0.0134,0.0188 -0.0166,0.0214 -0.0332,0.0449 0.003,0.006 0.004,0.005 0.008,0.0117 0.005,-0.007 0.0233,-0.0369 0.0274,-0.043 v -0.002 c 0.009,-0.0131 0.0566,-0.0883 0.0605,-0.0937 0.001,-0.004 0.003,-0.008 0.004,-0.0117 z m -0.0644,0.10742 c -0.001,0.0101 0.004,0.0457 0.006,0.0684 0.002,-0.006 0.004,-0.0115 0.006,-0.0176 -0.004,-0.019 -0.008,-0.0316 -0.0117,-0.0508 z m -0.043,0.043 c -0.004,0.005 -0.004,0.004 -0.008,0.01 0.002,0.006 0.002,0.0118 0.004,0.0176 0.002,-0.003 0.008,-0.0111 0.01,-0.0137 -0.003,-0.004 -0.003,-0.009 -0.006,-0.0137 z m -2.33985,1.71679 c 0.19757,0.0466 0.32534,0.0828 0.0586,0.002 -0.0215,-0.003 -0.0376,10e-4 -0.0586,-0.002 z m 25.49805,3.7168 c -0.004,9e-5 -0.008,0.002 -0.0117,0.002 -0.003,0.004 -0.005,0.008 -0.008,0.0117 0.006,-0.005 0.0133,-0.009 0.0195,-0.0137 z m -17.60547,1.04883 c -0.0187,0.065 -0.0473,0.12679 -0.0684,0.19141 0.011,-0.0192 0.0244,-0.0378 0.0352,-0.0566 0.021,0.0426 0.03,-0.0274 0.0332,-0.13476 z m -47.41797,8.35352 c 0.71412,0 3.26472,1.24403 5.66602,2.76562 6.25162,3.96136 12.14282,5.4375 21.70312,5.4375 9.64377,0 16.4369,-1.71542 22.03711,-5.56445 2.11198,-1.45158 4.44844,-2.63894 5.19141,-2.63867 1.91484,0 10.60042,8.9891 12.13672,12.56054 1.12476,2.61473 1.09084,4.00466 -0.26953,11.09375 -1.36032,7.08881 -1.39934,8.74914 -0.32032,13.24219 0.83216,3.46532 0.95644,5.9191 0.38476,7.54297 -0.4661,1.32396 -2.07526,3.0952 -3.57812,3.93555 -2.61762,1.46323 -2.96412,1.43508 -8.20899,-0.67579 -10.25572,-4.12756 -16.27621,-5.05686 -30.11133,-4.64843 -11.12957,0.32857 -13.65687,0.70097 -19.61914,2.89648 -10.32545,3.80218 -13.00563,3.97319 -15.36523,0.97656 -1.797,-2.28214 -1.89738,-3.17336 -1.35937,-11.95703 0.39866,-6.50878 0.20948,-11.04228 -0.60351,-14.42773 -0.94516,-3.9357 -0.95271,-5.48389 -0.0645,-7.64063 1.36818,-3.29966 10.58136,-12.89845 12.38087,-12.89843 z m -87.974611,6.88476 c 0.0091,0.0278 0.01613,0.0562 0.02539,0.084 0.02382,0.0729 0.05652,0.14252 0.08203,0.21485 -0.01795,-0.0965 -0.0376,-0.19273 -0.05664,-0.28906 -0.01699,-0.004 -0.03378,-0.005 -0.05078,-0.01 z m 71.716801,0.19141 c -0.0385,0.0371 -0.0825,0.0636 -0.11914,0.10351 -7.1e-4,0.009 0.001,0.0168 -0.002,0.0254 0.049,-0.0257 0.0978,-0.051 0.14648,-0.0762 -0.008,-0.0166 -0.0174,-0.0359 -0.0254,-0.0527 z m 147.5664,18.93945 c -0.0539,0.0258 -0.10689,0.0545 -0.16016,0.082 0.0424,0.0519 0.0868,0.10256 0.12695,0.15625 0.003,0.004 0.003,0.008 0.006,0.0117 0.009,-0.0833 0.0177,-0.16671 0.0274,-0.25 z M 168.625,265.73828 c -0.007,0.0215 -0.009,0.0433 -0.0176,0.0645 l 0.0762,0.002 z m 116.11133,7.7793 c -0.0301,0.007 -0.0588,0.0126 -0.0859,0.0176 -0.046,0.12398 -0.0904,0.24843 -0.13477,0.37304 0.0753,-0.12935 0.14577,-0.2611 0.22071,-0.39062 z m -103.16602,9.09375 c 2.81532,0.0206 5.54135,0.18879 8.08399,0.51367 8.53097,1.09002 15.45016,2.61638 20.15039,4.44531 2.95038,1.14804 3.41182,4.52333 0.91211,6.66797 -2.34129,2.00873 -3.95813,2.33366 -7.52735,1.51563 -6.7979,-1.55798 -27.15453,-1.96398 -38.82422,-0.77539 l -11.66601,1.1875 -1.7168,-2.11719 c -3.09442,-3.81749 -1.88384,-5.62001 5.28125,-7.85742 7.59966,-2.37309 16.8607,-3.64198 25.30664,-3.58008 z m -75.37109,17.65039 c -0.0224,1.3e-4 -0.0421,0.002 -0.0644,0.002 0.14172,0.2384 0.28459,0.47613 0.42578,0.71485 -0.12393,-0.23871 -0.23808,-0.47784 -0.36133,-0.7168 z m 140.1289,16.64258 c -0.0953,0.1477 -0.1788,0.2825 -0.27539,0.43164 0.12235,-0.12697 0.24484,-0.25379 0.36524,-0.38282 -0.0355,-0.0197 -0.0504,-0.0274 -0.0898,-0.0488 z" />
            <path
               id="path228"
               style="fill:none;stroke:none;stroke-width:1px;stroke-linecap:butt;stroke-linejoin:miter;stroke-opacity:1"
               d="m 137.10938,244.42383 c -0.008,0.11037 -0.0148,0.21729 -0.0234,0.32812 0.049,-0.0257 0.0978,-0.051 0.14648,-0.0762 -0.0374,-0.0795 -0.0808,-0.16706 -0.12304,-0.25195 z" />
            <path
               style="fill:#000000;stroke:#000000;stroke-width:1.11412px;stroke-linecap:butt;stroke-linejoin:miter;stroke-opacity:1"
               d="m 149.56044,259.37574 c 0.46785,-5.39432 4.44841,-7.07954 7.38902,-9.86286 2.87679,9.68799 7.44864,12.2295 11.67554,16.2254 -7.09098,-0.56013 -14.41139,-0.63383 -19.06456,-6.36254 z"
               id="path1391"
               sodipodi:nodetypes="cccc" />
            <path
               style="fill:#000000;stroke:#000000;stroke-width:1.11466px;stroke-linecap:butt;stroke-linejoin:miter;stroke-opacity:1"
               d="m 212.40283,259.46542 c -0.46063,-5.48409 -4.37982,-7.19735 -7.27509,-10.02699 -2.83244,9.84921 -7.3338,12.43301 -11.49553,16.49541 6.98166,-0.56945 14.18919,-0.64438 18.77062,-6.46842 z"
               id="path1391-3"
               sodipodi:nodetypes="cccc" />
          </g>
          <path
             style="fill:#c00000;fill-opacity:0;stroke:none;stroke-width:0.707107"
             d="M 96.178416,143.07052 C 82.835437,140.20842 71.265269,135.44907 60.029485,128.2008 42.221949,116.71303 27.803553,93.652149 23.693841,70.085313 22.483305,63.143587 22.318704,57.152368 23.338526,57.152368 c 0.384568,0 2.00983,2.625134 3.611693,5.833631 8.936267,17.899145 22.482671,31.849587 39.072934,40.238331 11.354694,5.74142 26.392479,9.50295 41.575117,10.39956 8.06135,0.47606 9.25262,0.71392 10.78492,2.15343 3.69646,3.47265 6.77684,14.65821 5.41925,19.67855 -0.58465,2.16204 -1.59433,3.25241 -5.39148,5.82241 -4.23064,2.86337 -5.11758,3.17985 -9.38646,3.34935 -3.0012,0.11915 -7.66936,-0.44669 -12.846084,-1.55711 z"
             id="path1853" />
          <path
             style="fill:#c00000;fill-opacity:1;stroke:none;stroke-width:0.00390625"
             d="M 25.258207,58.702042 C 25.039142,58.331739 24.782602,57.935018 24.573037,57.642471 24.3138,57.280585 24.096151,57.01978 23.860592,56.788763 23.631899,56.56448 23.47311,56.455847 23.332427,56.42743 c -0.04503,-0.0091 -0.119766,-0.0062 -0.15849,0.0061 -0.16683,0.05298 -0.333881,0.239709 -0.46101,0.515317 -0.102119,0.221386 -0.179546,0.478092 -0.253994,0.842104 l -0.02477,0.121094 -2.32e-4,-0.04023 c -1.86e-4,-0.03212 0.003,-0.05615 0.01561,-0.119141 0.100807,-0.502007 0.23628,-0.865145 0.408918,-1.096108 0.04068,-0.05442 0.123642,-0.138255 0.167806,-0.169564 0.0398,-0.02821 0.102584,-0.0612 0.143759,-0.07553 0.02841,-0.0099 0.03622,-0.01088 0.08594,-0.01089 0.04746,-1e-5 0.05975,0.0014 0.09301,0.01058 0.07757,0.02144 0.146775,0.055 0.234962,0.113931 0.102981,0.06882 0.180143,0.13366 0.30229,0.254013 0.335466,0.330538 0.715321,0.836199 1.157715,1.541145 0.08361,0.133232 0.25575,0.416561 0.270984,0.446021 0.0054,0.01053 0.0053,0.01101 -0.0033,0.01101 -0.0075,0 -0.01624,-0.0123 -0.05345,-0.0752 z"
             id="path1911" />
        </g>
        <text
           xml:space="preserve"
           style="font-style:normal;font-variant:normal;font-weight:normal;font-stretch:normal;font-size:20.9092px;line-height:1.25;font-family:Georgia;-inkscape-font-specification:Georgia;fill:#000000;fill-opacity:1;stroke:none;stroke-width:0.528779"
           x="86.914238"
           y="380.12497"
           id="text2046"
           transform="scale(1.0791111,0.92668866)"><tspan
             sodipodi:role="line"
             id="tspan2044"
             x="86.914238"
             y="380.12497"
             style="font-style:normal;font-variant:normal;font-weight:normal;font-stretch:normal;font-size:20.9092px;font-family:Georgia;-inkscape-font-specification:Georgia;fill:#ffbf00;fill-opacity:1;stroke-width:0.528779">NOT A VICTIM</tspan></text>
      </g>
      <g
         id="g1713"
         transform="matrix(0.57955168,0,0,0.66421309,694.97597,205.49905)">
        <path
           id="text1666"
           style="font-style:normal;font-weight:normal;font-size:10.5833px;line-height:1.25;font-family:sans-serif;white-space:pre;shape-inside:url(#rect1668);fill:#ffbf00;fill-opacity:1;stroke:none;stroke-width:11.9855"
           d="m 116.52035,56.685055 v 14.872149 c 5.78016,0.408601 11.00838,1.374478 15.68241,2.899073 5.04199,1.644619 9.14351,3.756342 12.30498,6.335269 3.2761,2.709647 5.67799,5.827795 7.20552,9.354518 1.52464,3.568041 2.14707,7.356228 1.86694,11.364906 -0.24547,3.51276 -1.26505,6.5891 -3.05848,9.22903 -1.75234,2.64219 -4.09498,4.87883 -7.02828,6.70974 -2.59009,1.64224 -5.71905,3.02692 -9.38701,4.1539 -3.62688,1.12924 -6.98412,1.94134 -10.0716,2.43632 l -0.35527,5.08308 31.23269,1.14728 0.34649,-4.95893 -4.01451,-2.77094 c 2.15399,-3.07655 3.88802,-6.34201 5.20206,-9.79636 1.31402,-3.45435 2.12256,-7.35094 2.42578,-11.69024 0.40719,-5.827059 -0.31989,-11.363512 -2.18109,-16.609329 -1.86122,-5.24583 -4.6945,-9.860568 -8.50045,-13.843717 -3.84415,-4.026722 -8.54756,-7.270683 -14.11005,-9.731962 -5.20267,-2.317081 -11.05644,-3.71091 -17.56013,-4.183787 z" />
        <path
           id="text1666-6"
           style="font-style:normal;font-weight:normal;font-size:10.5833px;line-height:1.25;font-family:sans-serif;white-space:pre;shape-inside:url(#rect1668);fill:#ffbf00;fill-opacity:1;stroke:none;stroke-width:11.3766"
           d="m 98.404346,56.165248 v 15.21331 c -5.090982,0.41798 -9.695844,1.406 -13.812581,2.96557 -4.440825,1.68235 -8.053321,3.84251 -10.837843,6.4806 -2.885487,2.77181 -5.000992,5.96148 -6.346394,9.56911 -1.342864,3.64989 -1.891078,7.52497 -1.644349,11.625612 0.216202,3.59335 1.114213,6.74025 2.693818,9.44075 1.543398,2.70279 3.606728,4.99075 6.190295,6.86364 2.281258,1.67992 5.037152,3.09636 8.267788,4.24921 3.194428,1.15514 6.151391,1.98587 8.870743,2.4922 l 0.312918,5.19968 -27.508787,1.17361 -0.305179,-5.0727 3.535856,-2.83449 c -1.897161,-3.14713 -3.424455,-6.4875 -4.581808,-10.0211 -1.157353,-3.53358 -1.869483,-7.51956 -2.136562,-11.9584 -0.358641,-5.960732 0.281747,-11.624192 1.92104,-16.990352 1.639301,-5.36616 4.134783,-10.08676 7.486929,-14.16128 3.385804,-4.11909 7.528423,-7.43747 12.427703,-9.95521 4.582342,-2.37023 9.738166,-3.79604 15.466413,-4.27976 z" />
        <text
           xml:space="preserve"
           id="text1703"
           style="font-style:normal;font-weight:normal;font-size:10.5833px;line-height:1.25;font-family:sans-serif;white-space:pre;shape-inside:url(#rect1705);fill:#ffbf00;fill-opacity:1;stroke:none;"
           transform="matrix(18.37793,0,0,20.715973,-1560.1272,-354.61812)"
           inkscape:transform-center-x="42.572706"
           inkscape:transform-center-y="-27.971276"><tspan
             x="87.519531"
             y="25.442999"><tspan
               style="font-style:normal;font-variant:normal;font-weight:normal;font-stretch:normal;font-family:Georgia;-inkscape-font-specification:Georgia;fill:#ffbf00;fill-opacity:1">T</tspan></tspan></text>
      </g>
    </g>
  </g>
</svg>
